<svg width="48" height="49" viewBox="0 0 48 49" fill="none" xmlns="http://www.w3.org/2000/svg">
<g clip-path="url(#clip0)">
<path d="M47.3932 11.0203C47.3932 10.9663 47.4303 10.9138 47.4278 10.8604L33.0137 24.7492L47.4106 38.1943C47.419 38.0982 47.3932 38.0014 47.3932 37.9033V11.0203Z" fill="#00A1C5"/>
<path d="M30.8135 26.8865L24.9292 32.5478C24.6315 32.8343 24.2469 32.978 23.8621 32.978C23.4853 32.978 23.1086 32.8405 22.8129 32.5649L16.9446 27.0966L2.45378 41.0641C2.80613 41.1908 3.18434 41.2891 3.58039 41.2891H44.144C44.7322 41.2891 45.2838 41.1099 45.7634 40.8427L30.8135 26.8865Z" fill="#00A1C5"/>
<path d="M23.8453 29.3195L45.8432 8.12906C45.3451 7.83294 44.7654 7.63429 44.144 7.63429H3.5804C2.77124 7.63429 2.02981 7.94847 1.45235 8.42764L23.8453 29.3195Z" fill="#00A1C5"/>
<path d="M0.194397 11.5364V37.9029C0.194397 38.2055 0.263964 38.4973 0.339482 38.7762L14.6506 24.995L0.194397 11.5364Z" fill="#00A1C5"/>
</g>
<defs>
<clipPath id="clip0">
<rect width="47.2336" height="47.2336" fill="white" transform="translate(0.194397 0.844849)"/>
</clipPath>
</defs>
</svg>
