<svg width="48" height="48" viewBox="0 0 48 48" fill="none" xmlns="http://www.w3.org/2000/svg">
<g clip-path="url(#clip0)">
<path d="M23.8112 0.194397C10.822 0.194397 0.194397 10.822 0.194397 23.8112C0.194397 36.8005 10.822 47.428 23.8112 47.428C36.8005 47.428 47.428 36.8005 47.428 23.8112C47.428 10.822 36.8005 0.194397 23.8112 0.194397ZM23.8112 7.27944C27.8261 7.27944 30.8963 10.3496 30.8963 14.3645C30.8963 18.3794 27.8261 21.4495 23.8112 21.4495C19.7964 21.4495 16.7262 18.3794 16.7262 14.3645C16.7262 10.3496 19.7964 7.27944 23.8112 7.27944ZM23.8112 40.8153C17.907 40.8153 12.7113 37.7452 9.64113 33.2579C9.64113 28.5346 19.0879 25.9367 23.8112 25.9367C28.5346 25.9367 37.9813 28.5346 37.9813 33.2579C34.9111 37.7451 29.7154 40.8153 23.8112 40.8153Z" fill="#00A1C5"/>
</g>
<defs>
<clipPath id="clip0">
<rect width="47.2336" height="47.2336" fill="white" transform="translate(0.194397 0.194397)"/>
</clipPath>
</defs>
</svg>
