<svg width="48" height="48" viewBox="0 0 48 48" fill="none" xmlns="http://www.w3.org/2000/svg">
<g clip-path="url(#clip0)">
<path d="M37.0957 17.907H35.6196V12.0028C35.6196 5.49044 30.3236 0.194366 23.8112 0.194366C17.2989 0.194366 12.0028 5.49044 12.0028 12.0028V17.907H10.5268C8.08635 17.907 6.0986 19.8928 6.0986 22.3351V42.9999C6.0986 45.4422 8.08635 47.428 10.5268 47.428H37.0957C39.5361 47.428 41.5238 45.4422 41.5238 42.9999V22.3351C41.5238 19.8928 39.5361 17.907 37.0957 17.907ZM15.9389 12.0028C15.9389 7.66122 19.4697 4.1305 23.8112 4.1305C28.1528 4.1305 31.6835 7.66122 31.6835 12.0028V17.907H15.9389V12.0028ZM25.7793 33.1044V37.5877C25.7793 38.674 24.8996 39.5557 23.8112 39.5557C22.7229 39.5557 21.8431 38.674 21.8431 37.5877V33.1044C20.6721 32.4215 19.8751 31.1659 19.8751 29.7154C19.8751 27.5446 21.6404 25.7793 23.8112 25.7793C25.982 25.7793 27.7474 27.5446 27.7474 29.7154C27.7474 31.1659 26.9503 32.4215 25.7793 33.1044Z" fill="#00A1C5"/>
</g>
<defs>
<clipPath id="clip0">
<rect width="47.2336" height="47.2336" fill="white" transform="translate(0.194397 0.194366)"/>
</clipPath>
</defs>
</svg>
