<svg width="45" height="45" viewBox="0 0 45 45" fill="none" xmlns="http://www.w3.org/2000/svg">
<path d="M45 22.5C45 34.9266 34.9266 45 22.5 45C10.0734 45 0 34.9266 0 22.5C0 10.0734 10.0734 0 22.5 0C34.9266 0 45 10.0734 45 22.5Z" fill="url(#paint0_linear)"/>
<path d="M38.4082 20.3697C38.4082 18.0519 37.2704 15.9147 35.3918 14.6183V13.8733C35.3918 9.27692 31.652 5.53711 27.0552 5.53711C25.0536 5.53711 23.1183 6.2574 21.606 7.56477C20.6361 8.40351 19.8787 9.4479 19.384 10.6087C18.6483 10.253 17.8342 10.0621 16.9993 10.0621C13.977 10.0621 11.5181 12.521 11.5181 15.5433V16.5519C9.09737 17.1359 7.29492 19.3023 7.29492 21.8782C7.29492 24.1802 8.67165 26.1667 10.6979 26.9742C9.97799 27.2186 9.31606 27.6296 8.75919 28.1885C7.81506 29.1368 7.29492 30.3865 7.29492 31.7072C7.29492 33.0266 7.7948 34.2643 8.70255 35.192C9.62231 36.1327 10.8593 36.6504 12.1856 36.6504H28.5765C28.6081 36.6504 28.6393 36.6494 28.6705 36.647C29.3599 36.6253 30.0346 36.4918 30.6769 36.2501C31.3581 35.9933 31.7024 35.2328 31.446 34.5517C31.1892 33.8702 30.4287 33.5258 29.7475 33.7826C29.3651 33.9265 28.962 34.0041 28.5493 34.0126C28.5387 34.013 28.5281 34.0133 28.5178 34.0137H12.1856C10.9218 34.0137 9.93164 33.0005 9.93164 31.7072C9.93164 30.4297 11.0083 29.3503 12.2827 29.3503C13.0071 29.3503 13.5956 28.766 13.6011 28.0416C13.6011 28.0302 13.6093 26.9117 13.6093 26.222C13.6093 24.9503 14.6437 23.9155 15.9158 23.9155C16.5952 23.9155 17.2094 24.1874 17.6451 24.6811C17.9836 25.0646 18.5133 25.2177 19.0039 25.0739C19.4946 24.9304 19.8581 24.516 19.9364 24.0106C20.2955 21.6925 22.3314 19.9443 24.6719 19.9443C27.3326 19.9443 29.4969 22.0942 29.4969 24.7371V26.0294C29.4969 26.5172 29.7664 26.9649 30.1973 27.1939C31.3656 27.8139 32.0911 29.04 32.0911 30.394C32.0911 31.1219 32.6816 31.7124 33.4094 31.7124C34.1376 31.7124 34.7278 31.1219 34.7278 30.394C34.7278 28.343 33.7514 26.4571 32.1336 25.2988V24.7371C32.1336 20.6406 28.7862 17.3079 24.6719 17.3079C22.888 17.3079 21.1628 17.9527 19.8132 19.1241C18.9923 19.8368 18.3424 20.7147 17.9019 21.6894C17.2839 21.4216 16.6086 21.2788 15.9154 21.2788C13.8479 21.2788 12.074 22.5553 11.3372 24.3608C10.4871 23.8726 9.93164 22.9405 9.93164 21.8782C9.93164 20.3096 11.2304 19.0335 12.8272 19.0335H12.8365C13.5647 19.0335 14.1549 18.4433 14.1549 17.7151V15.5433C14.1549 13.975 15.431 12.6988 16.9993 12.6988C17.8143 12.6988 18.5916 13.05 19.1323 13.6625C19.4705 14.046 20.0003 14.1991 20.4909 14.0556C20.9818 13.9118 21.3451 13.4974 21.4237 12.992C21.8491 10.2451 24.2702 8.17383 27.0552 8.17383C30.198 8.17383 32.7551 10.7306 32.7551 13.8733V15.3575C32.7551 15.8454 33.0242 16.2931 33.4551 16.5221C34.884 17.2801 35.7715 18.7547 35.7715 20.3697C35.7715 20.38 35.7729 20.3899 35.7729 20.3999C35.7729 20.4102 35.7715 20.4198 35.7715 20.4301C35.7715 21.218 35.5665 21.9936 35.1793 22.6727C34.8184 23.3051 35.0385 24.1102 35.6709 24.471C35.8772 24.5888 36.1014 24.6447 36.3232 24.6447C36.7809 24.6447 37.2261 24.4058 37.4692 23.9794C38.0834 22.9027 38.4082 21.6753 38.4082 20.4301C38.4082 20.4198 38.4068 20.4102 38.4068 20.3999C38.4068 20.3899 38.4082 20.38 38.4082 20.3697Z" fill="white"/>
<defs>
<linearGradient id="paint0_linear" x1="0" y1="22.5" x2="45" y2="22.5" gradientUnits="userSpaceOnUse">
<stop stop-color="#003A6D"/>
<stop offset="0.0001" stop-color="#083156"/>
<stop offset="0.416667" stop-color="#00506A"/>
<stop offset="0.765625" stop-color="#00A6C4"/>
<stop offset="1" stop-color="#009FBC"/>
</linearGradient>
</defs>
</svg>
