<svg width="45" height="45" viewBox="0 0 45 45" fill="none" xmlns="http://www.w3.org/2000/svg">
<path d="M45 22.5C45 34.9266 34.9266 45 22.5 45C10.0734 45 0 34.9266 0 22.5C0 10.0734 10.0734 0 22.5 0C34.9266 0 45 10.0734 45 22.5Z" fill="url(#paint0_linear)"/>
<path d="M29.7805 12.9628C26.7088 8.79902 23.6876 5.48904 23.5605 5.35C23.3106 5.0774 22.9576 4.92188 22.5879 4.92188C22.2181 4.92188 21.8652 5.0774 21.6153 5.35C21.4882 5.48904 18.467 8.79902 15.3953 12.9628C11.1556 18.7097 9.00604 23.1252 9.00604 26.0867V26.4633C9.0057 33.9708 15.0986 40.0781 22.5879 40.0781C24.9146 40.0781 27.2111 39.478 29.2284 38.3423C29.8632 37.9852 30.0881 37.1812 29.7307 36.5467C29.3737 35.9122 28.5699 35.6877 27.9355 36.0444C26.3116 36.9584 24.4624 37.4414 22.5879 37.4414C17.1929 37.4414 12.6974 33.5059 11.8045 28.3468C12.4705 28.7251 13.1486 28.9167 13.8335 28.9167C15.225 28.9167 16.587 28.1312 17.8813 26.5814C17.9572 26.4908 18.0924 26.4365 18.2431 26.4365C18.3939 26.4365 18.5291 26.4908 18.605 26.5814C19.8993 28.1312 21.2609 28.9167 22.6524 28.9167C24.0439 28.9167 25.4055 28.1312 26.6999 26.5814C26.7757 26.4908 26.911 26.4365 27.0617 26.4365C27.2124 26.4365 27.3477 26.4908 27.4239 26.5814C28.7183 28.1312 30.0799 28.9167 31.4714 28.9167C32.1089 28.9167 32.7399 28.7498 33.3614 28.422C33.1681 29.5045 32.8127 30.5465 32.2971 31.5366C31.9609 32.1824 32.2119 32.9786 32.8577 33.315C33.5035 33.6511 34.2997 33.4002 34.6358 32.7544C35.6393 30.8266 36.1697 28.651 36.1697 26.4633V26.0867C36.1701 23.1252 34.0202 18.7097 29.7805 12.9628ZM31.4714 26.28C30.9224 26.28 30.1849 25.7739 29.4475 24.8912C28.868 24.1974 27.9987 23.7998 27.0621 23.7998C26.1251 23.7998 25.2559 24.1974 24.6763 24.8912C23.9392 25.7739 23.2014 26.28 22.6524 26.28C22.1035 26.28 21.366 25.7739 20.6285 24.8912C20.0494 24.1974 19.1797 23.7998 18.2431 23.7998C17.3066 23.7998 16.4369 24.1974 15.8577 24.8912C15.1203 25.7739 14.3825 26.28 13.8335 26.28C13.2845 26.28 12.5471 25.7739 11.8096 24.8912L11.7794 24.9163C12.7864 20.1939 19.1245 12.177 22.5882 8.2188C26.0695 12.1959 32.4553 20.2739 33.4115 24.9887C32.7025 25.8103 31.9997 26.28 31.4714 26.28Z" fill="white"/>
<defs>
<linearGradient id="paint0_linear" x1="0" y1="22.5" x2="45" y2="22.5" gradientUnits="userSpaceOnUse">
<stop stop-color="#0047FF"/>
<stop offset="0.231" stop-color="#0047FF"/>
<stop offset="0.5138" stop-color="#4C72D3"/>
<stop offset="0.7773" stop-color="#5B7ED8"/>
<stop offset="1" stop-color="#B6B6B6"/>
</linearGradient>
</defs>
</svg>
