<svg width="45" height="45" viewBox="0 0 45 45" fill="none" xmlns="http://www.w3.org/2000/svg">
<path d="M45 22.5C45 34.9266 34.9266 45 22.5 45C10.0734 45 0 34.9266 0 22.5C0 10.0734 10.0734 0 22.5 0C34.9266 0 45 10.0734 45 22.5Z" fill="url(#paint0_linear)"/>
<path d="M9.15835 30.0978L21.595 30.1033C21.5952 30.1033 21.5953 30.1033 21.5955 30.1033C22.2196 30.1033 22.7258 29.5974 22.7261 28.9732C22.7264 28.3488 22.2204 27.8424 21.596 27.8421L9.15937 27.8366C9.1592 27.8366 9.15903 27.8366 9.15886 27.8366C8.53474 27.8366 8.02854 28.3425 8.02826 28.9667C8.02798 29.5911 8.53395 30.0975 9.15835 30.0978Z" fill="white"/>
<path d="M11.4873 20.9215C11.9506 20.6088 12.5259 20.4366 13.1073 20.4366H13.116C13.7404 20.4366 14.2466 19.9304 14.2466 19.306V17.2709C14.2466 15.7436 15.4892 14.501 17.0166 14.501C17.81 14.501 18.567 14.8431 19.0935 15.4396C19.3837 15.7684 19.8378 15.8997 20.2587 15.7765C20.6796 15.6533 20.9913 15.2978 21.0584 14.8645C21.465 12.2402 23.7781 10.2612 26.4388 10.2612C29.4413 10.2612 31.8839 12.7039 31.8839 15.7063V17.0968C31.8839 17.5152 32.115 17.8994 32.4845 18.0955C33.8575 18.8243 34.7104 20.2412 34.7104 21.7934C34.7104 22.5471 34.5081 23.2855 34.1254 23.9286C33.8061 24.4653 33.9822 25.1591 34.5187 25.4784C34.7001 25.5862 34.8991 25.6376 35.0958 25.6376C35.4814 25.6376 35.8571 25.4403 36.0685 25.085C36.6593 24.0922 36.9716 22.9539 36.9716 21.7934C36.9716 19.6377 35.9042 17.6518 34.145 16.4595V15.7063C34.1452 11.4571 30.6882 8 26.4389 8C24.5886 8 22.7995 8.6657 21.4012 9.87452C20.4762 10.6742 19.7605 11.6768 19.3043 12.7909C18.6032 12.4327 17.8202 12.2397 17.0166 12.2397C14.2424 12.2397 11.9853 14.4967 11.9853 17.2709V18.2979C11.3528 18.4369 10.7492 18.6915 10.2223 19.0472C9.70471 19.3965 9.56838 20.0993 9.91768 20.6168C10.267 21.1345 10.9697 21.2708 11.4873 20.9215Z" fill="white"/>
<path d="M9.15886 25.6374H12.3811C13.0055 25.6374 13.5117 25.1312 13.5117 24.5068C13.5117 23.8824 13.0055 23.3762 12.3811 23.3762H9.15886C8.53446 23.3762 8.02826 23.8824 8.02826 24.5068C8.02826 25.1312 8.53446 25.6374 9.15886 25.6374Z" fill="white"/>
<path d="M32.3928 27.8366H27.2485C26.6241 27.8366 26.1179 28.3428 26.1179 28.9672C26.1179 29.5916 26.6241 30.0978 27.2485 30.0978H32.3928C33.6708 30.0978 34.7105 31.14 34.7105 32.4211C34.7105 33.699 33.6708 34.7388 32.3928 34.7388C31.7737 34.7388 31.1916 34.4977 30.7539 34.06C30.3123 33.6183 29.5965 33.6183 29.155 34.0599C28.7134 34.5015 28.7134 35.2173 29.1549 35.6588C30.0198 36.5236 31.1697 37 32.3928 37C34.9177 37 36.9717 34.9459 36.9717 32.4211C36.9717 29.8932 34.9177 27.8366 32.3928 27.8366Z" fill="white"/>
<path d="M28.5127 21.053C28.5127 18.5281 26.4586 16.4741 23.9337 16.4741C22.7015 16.4741 21.5455 16.9565 20.6788 17.8325C20.2396 18.2764 20.2434 18.9922 20.6873 19.4314C21.1312 19.8706 21.847 19.8668 22.2862 19.4229C22.7249 18.9794 23.3101 18.7353 23.9338 18.7353C25.2118 18.7353 26.2515 19.775 26.2515 21.053C26.2515 22.334 25.2118 23.3762 23.9338 23.3762H18.0341C17.4097 23.3762 16.9035 23.8824 16.9035 24.5068C16.9035 25.1312 17.4097 25.6374 18.0341 25.6374H23.9337C26.4586 25.6374 28.5127 23.5809 28.5127 21.053Z" fill="white"/>
<path d="M20.4649 32.3601H9.15886C8.53446 32.3601 8.02826 32.8663 8.02826 33.4907C8.02826 34.1151 8.53446 34.6213 9.15886 34.6213H20.4649C21.1195 34.6213 21.652 35.1539 21.652 35.8085C21.652 36.4329 22.1582 36.9391 22.7826 36.9391C23.4071 36.9391 23.9132 36.4329 23.9132 35.8085C23.9132 33.907 22.3664 32.3601 20.4649 32.3601Z" fill="white"/>
<defs>
<linearGradient id="paint0_linear" x1="0" y1="22.5" x2="45" y2="22.5" gradientUnits="userSpaceOnUse">
<stop stop-color="#002513"/>
<stop offset="0.0001" stop-color="#01391E"/>
<stop offset="0.333333" stop-color="#006233"/>
<stop offset="0.708333" stop-color="#00B35D"/>
<stop offset="0.963542" stop-color="#00FF85"/>
</linearGradient>
</defs>
</svg>
