<svg width="190" height="190" viewBox="0 0 190 190" fill="none" xmlns="http://www.w3.org/2000/svg">
<g clip-path="url(#clip0)">
<g filter="url(#filter0_d)">
<path d="M183.997 75.0254C176.788 33.2539 140.024 2.95726 97.1117 0.0134131C92.7714 -0.284217 90.0997 4.43739 92.8604 7.60773C103.866 20.2464 110.412 36.4662 110.231 54.1311C109.823 93.9235 74.9254 126.109 32.7016 125.676C25.0337 125.596 17.6359 124.456 10.6658 122.404C6.49246 121.174 2.82378 125.253 4.75042 128.951C22.7196 163.446 63.0604 184.371 105.393 177.882C157.238 169.935 192.43 123.884 183.997 75.0254Z" fill="#FEE97D"/>
<path d="M14.7236 144.062C22.6903 145.91 31.0486 146.935 39.6699 147.016C94.8011 147.535 140.367 109.059 140.9 61.4898C141.135 40.3726 117.047 4.24808 116.861 3.3862C110.491 1.62375 103.878 0.477732 97.1106 0.0134131C92.7704 -0.284217 90.0987 4.43738 92.8594 7.60773C103.865 20.2464 110.411 36.4662 110.23 54.1311C109.822 93.9235 74.9243 126.109 32.7006 125.676C25.0323 125.596 17.6348 124.456 10.6648 122.404C6.49143 121.174 2.82274 125.253 4.7494 128.951C7.555 134.336 10.9056 139.39 14.7236 144.062Z" fill="#FEE45A"/>
<path d="M76.7538 75.3073C73.5697 73.3611 70.9522 70.9305 68.9389 67.9837C68.0007 66.6104 65.8712 66.5867 64.8661 67.9173C62.8264 70.6178 60.2112 73 57.0863 75.1002C55.6477 76.0671 55.7081 78.1272 57.2059 79.011C60.3224 80.8504 62.9336 83.2318 64.9686 86.2308C65.9065 87.6127 68.0572 87.6179 69.0209 86.2518C70.9909 83.4601 73.6363 81.1553 76.7751 79.2065C78.2748 78.2764 78.2597 76.228 76.7538 75.3073Z" fill="#FEE97D"/>
<path d="M29.2432 31.8562C26.059 29.91 23.4416 27.4793 21.4282 24.5326C20.49 23.1593 18.3605 23.1356 17.3554 24.4661C15.3158 27.1667 12.7007 29.5489 9.57569 31.649C8.1371 32.616 8.19747 34.6761 9.69529 35.5598C12.8117 37.3993 15.423 39.7806 17.458 42.7795C18.3958 44.1616 20.5465 44.1666 21.5102 42.8007C23.4802 40.009 26.1256 37.7042 29.2644 35.7553C30.7638 34.8249 30.7491 32.7765 29.2432 31.8562Z" fill="#FEE97D"/>
<path d="M64.1342 40.2354C62.5307 40.2354 61.2315 39.0107 61.2315 37.4999V27.2601C61.2315 25.7493 62.5307 24.5245 64.1342 24.5245C65.7377 24.5245 67.0369 25.7493 67.0369 27.2601V37.4995C67.0369 39.0107 65.7377 40.2354 64.1342 40.2354Z" fill="#FEF48B"/>
<path d="M69.567 35.1156H58.7019C57.0984 35.1156 55.7991 33.8907 55.7991 32.38C55.7991 30.8692 57.0984 29.6445 58.7019 29.6445H69.567C71.1705 29.6445 72.4698 30.8692 72.4698 32.38C72.4698 33.8907 71.1705 35.1156 69.567 35.1156Z" fill="#FEF48B"/>
<path d="M21.1484 90.8494C19.5449 90.8494 18.2456 89.6247 18.2456 88.1138V77.8744C18.2456 76.3637 19.5449 75.1388 21.1484 75.1388C22.7519 75.1388 24.0511 76.3637 24.0511 77.8744V88.1138C24.0511 89.6247 22.7514 90.8494 21.1484 90.8494Z" fill="#FEF48B"/>
<path d="M26.5808 85.7296H15.7155C14.1121 85.7296 12.8129 84.5047 12.8129 82.994C12.8129 81.4832 14.1121 80.2584 15.7155 80.2584H26.5808C28.1843 80.2584 29.4835 81.4832 29.4835 82.994C29.4835 84.5047 28.1839 85.7296 26.5808 85.7296Z" fill="#FEF48B"/>
</g>
</g>
<defs>
<filter id="filter0_d" x="0.222221" y="0" width="189.023" height="190.058" filterUnits="userSpaceOnUse" color-interpolation-filters="sRGB">
<feFlood flood-opacity="0" result="BackgroundImageFix"/>
<feColorMatrix in="SourceAlpha" type="matrix" values="0 0 0 0 0 0 0 0 0 0 0 0 0 0 0 0 0 0 127 0"/>
<feOffset dy="7"/>
<feGaussianBlur stdDeviation="2"/>
<feColorMatrix type="matrix" values="0 0 0 0 0 0 0 0 0 0 0 0 0 0 0 0 0 0 0.25 0"/>
<feBlend mode="normal" in2="BackgroundImageFix" result="effect1_dropShadow"/>
<feBlend mode="normal" in="SourceGraphic" in2="effect1_dropShadow" result="shape"/>
</filter>
<clipPath id="clip0">
<rect width="190" height="190" fill="white"/>
</clipPath>
</defs>
</svg>
