<svg width="206" height="151" viewBox="0 0 206 151" fill="none" xmlns="http://www.w3.org/2000/svg">
<g filter="url(#filter0_d)">
<path d="M166.24 56.4767C167.432 53.3713 168.1 49.9757 168.1 46.4351C168.1 31.0534 155.604 18.574 140.2 18.574C134.475 18.574 129.127 20.3154 124.71 23.2756C116.66 9.3451 101.634 0 84.4 0C58.7088 0 37.9 20.7797 37.9 46.4351C37.9 47.2186 37.929 48.0022 37.9582 48.7858C21.6832 54.5032 10 70.0005 10 88.2267C10 111.299 28.7454 130.019 51.85 130.019H158.8C179.347 130.019 196 113.389 196 92.8701C196 74.9056 183.212 59.9012 166.24 56.4767Z" fill="url(#paint0_linear)"/>
</g>
<defs>
<filter id="filter0_d" x="0" y="0" width="206" height="150.019" filterUnits="userSpaceOnUse" color-interpolation-filters="sRGB">
<feFlood flood-opacity="0" result="BackgroundImageFix"/>
<feColorMatrix in="SourceAlpha" type="matrix" values="0 0 0 0 0 0 0 0 0 0 0 0 0 0 0 0 0 0 127 0"/>
<feOffset dy="10"/>
<feGaussianBlur stdDeviation="5"/>
<feColorMatrix type="matrix" values="0 0 0 0 0 0 0 0 0 0 0 0 0 0 0 0 0 0 0.4 0"/>
<feBlend mode="normal" in2="BackgroundImageFix" result="effect1_dropShadow"/>
<feBlend mode="normal" in="SourceGraphic" in2="effect1_dropShadow" result="shape"/>
</filter>
<linearGradient id="paint0_linear" x1="103" y1="0" x2="103" y2="130.018" gradientUnits="userSpaceOnUse">
<stop stop-color="#6C6C6C"/>
<stop offset="1" stop-color="#8F8F8F"/>
</linearGradient>
</defs>
</svg>
