<svg width="199" height="197" viewBox="0 0 199 197" fill="none" xmlns="http://www.w3.org/2000/svg">
<g filter="url(#filter0_d)">
<path d="M62.1188 173.994L58.3666 171.792L61.6312 170.903C62.4348 170.683 62.9126 169.84 62.6933 169.026L62.3001 167.543C62.0906 166.729 61.2576 166.242 60.454 166.462L52.826 168.539L45.9549 164.5L52.8357 160.461L60.4626 162.538C61.2674 162.758 62.0906 162.271 62.3099 161.457L62.7031 159.974C62.9126 159.16 62.4446 158.317 61.6398 158.097L58.3764 157.208L62.1286 155.006C62.8464 154.585 63.0951 153.648 62.6835 152.91L61.9277 151.58C61.5161 150.844 60.5876 150.594 59.8697 151.015L56.1187 153.217L56.9885 149.896C57.1992 149.082 56.7312 148.241 55.9264 148.02L54.4723 147.628C53.6687 147.408 52.8456 147.895 52.6251 148.709L50.5867 156.462L43.7058 160.499V152.413L49.2845 146.738C49.8688 146.145 49.8688 145.168 49.2845 144.574L48.2224 143.494C47.6393 142.9 46.6813 142.9 46.0982 143.494L43.7156 145.924V141.531C43.7156 140.688 43.0456 140 42.2126 140H40.7095C39.8777 140 39.2076 140.688 39.2076 141.531V145.944L36.825 143.512C36.2407 142.919 35.284 142.919 34.6996 143.512L33.5996 144.594C33.0152 145.187 33.0152 146.163 33.5996 146.757L39.1782 152.431V160.519L32.2974 156.48L30.259 148.728C30.0483 147.915 29.2165 147.427 28.4117 147.646L26.9576 148.038C26.154 148.259 25.675 149.102 25.8955 149.915L26.7665 153.236L23.0144 151.035C22.2965 150.613 21.3777 150.862 20.9563 151.6L20.2005 152.93C19.7889 153.666 20.029 154.595 20.7554 155.026L24.5076 157.226L21.2442 158.097C20.4406 158.317 19.9616 159.16 20.1821 159.974L20.5742 161.457C20.7849 162.271 21.6166 162.758 22.4214 162.538L30.0483 160.461L36.9291 164.5L30.0483 168.539L22.4214 166.462C21.6166 166.242 20.7947 166.729 20.5742 167.543L20.1821 169.026C19.9714 169.84 20.4406 170.683 21.2442 170.903L24.5076 171.792L20.7554 173.994C20.0376 174.415 19.7889 175.352 20.2005 176.09L20.9563 177.42C21.3679 178.156 22.2965 178.406 23.0144 177.985L26.7665 175.783L25.8955 179.104C25.6848 179.918 26.154 180.759 26.9576 180.98L28.4117 181.372C29.2165 181.592 30.0385 181.105 30.259 180.291L32.2974 172.538L39.1782 168.501V176.587L33.5996 182.263C33.0152 182.855 33.0152 183.832 33.5996 184.426L34.6617 185.506C35.2448 186.1 36.2027 186.1 36.7858 185.506L39.1696 183.076V187.469C39.1696 188.312 39.8385 189 40.6715 189H42.1746C43.0063 189 43.6764 188.312 43.6764 187.469V183.056L46.0603 185.488C46.6434 186.081 47.6001 186.081 48.1844 185.488L49.2465 184.406C49.8308 183.813 49.8308 182.837 49.2465 182.243L43.6666 176.569V168.481L50.5487 172.52L52.5871 180.272C52.7978 181.085 53.6295 181.574 54.4344 181.354L55.8885 180.962C56.6921 180.741 57.171 179.898 56.9505 179.085L56.0795 175.764L59.8317 177.965C60.5496 178.387 61.4683 178.138 61.8885 177.4L62.6455 176.07C63.0853 175.352 62.8465 174.415 62.1188 173.994Z" fill="url(#paint0_linear)"/>
</g>
<g filter="url(#filter1_d)">
<path d="M120.119 173.994L116.367 171.792L119.631 170.903C120.435 170.683 120.913 169.84 120.693 169.026L120.3 167.543C120.091 166.729 119.258 166.242 118.454 166.462L110.826 168.539L103.955 164.5L110.836 160.461L118.463 162.538C119.267 162.758 120.091 162.271 120.31 161.457L120.703 159.974C120.913 159.16 120.445 158.317 119.64 158.097L116.376 157.208L120.129 155.006C120.846 154.585 121.095 153.648 120.684 152.91L119.928 151.58C119.516 150.844 118.588 150.594 117.87 151.015L114.119 153.217L114.988 149.896C115.199 149.082 114.731 148.241 113.926 148.02L112.472 147.628C111.669 147.408 110.846 147.895 110.625 148.709L108.587 156.462L101.706 160.499V152.413L107.284 146.738C107.869 146.145 107.869 145.168 107.284 144.574L106.222 143.494C105.639 142.9 104.681 142.9 104.098 143.494L101.716 145.924V141.531C101.716 140.688 101.046 140 100.213 140H98.7095C97.8777 140 97.2076 140.688 97.2076 141.531V145.944L94.825 143.512C94.2407 142.919 93.284 142.919 92.6996 143.512L91.5996 144.594C91.0152 145.187 91.0152 146.163 91.5996 146.757L97.1782 152.431V160.519L90.2974 156.48L88.259 148.728C88.0483 147.915 87.2165 147.427 86.4117 147.646L84.9576 148.038C84.154 148.259 83.675 149.102 83.8955 149.915L84.7665 153.236L81.0144 151.035C80.2965 150.613 79.3777 150.862 78.9563 151.6L78.2005 152.93C77.7889 153.666 78.029 154.595 78.7554 155.026L82.5076 157.226L79.2442 158.097C78.4406 158.317 77.9616 159.16 78.1821 159.974L78.5742 161.457C78.7849 162.271 79.6166 162.758 80.4214 162.538L88.0483 160.461L94.9291 164.5L88.0483 168.539L80.4214 166.462C79.6166 166.242 78.7947 166.729 78.5742 167.543L78.1821 169.026C77.9714 169.84 78.4406 170.683 79.2442 170.903L82.5076 171.792L78.7554 173.994C78.0376 174.415 77.7889 175.352 78.2005 176.09L78.9563 177.42C79.3679 178.156 80.2965 178.406 81.0144 177.985L84.7665 175.783L83.8955 179.104C83.6848 179.918 84.154 180.759 84.9576 180.98L86.4117 181.372C87.2165 181.592 88.0385 181.105 88.259 180.291L90.2974 172.538L97.1782 168.501V176.587L91.5996 182.263C91.0152 182.855 91.0152 183.832 91.5996 184.426L92.6617 185.506C93.2448 186.1 94.2027 186.1 94.7858 185.506L97.1696 183.076V187.469C97.1696 188.312 97.8385 189 98.6715 189H100.175C101.006 189 101.676 188.312 101.676 187.469V183.056L104.06 185.488C104.643 186.081 105.6 186.081 106.184 185.488L107.247 184.406C107.831 183.813 107.831 182.837 107.247 182.243L101.667 176.569V168.481L108.549 172.52L110.587 180.272C110.798 181.085 111.63 181.574 112.434 181.354L113.888 180.962C114.692 180.741 115.171 179.898 114.951 179.085L114.08 175.764L117.832 177.965C118.55 178.387 119.468 178.138 119.888 177.4L120.646 176.07C121.085 175.352 120.846 174.415 120.119 173.994Z" fill="url(#paint1_linear)"/>
</g>
<g filter="url(#filter2_d)">
<path d="M178.119 173.994L174.367 171.792L177.631 170.903C178.435 170.683 178.913 169.84 178.693 169.026L178.3 167.543C178.091 166.729 177.258 166.242 176.454 166.462L168.826 168.539L161.955 164.5L168.836 160.461L176.463 162.538C177.267 162.758 178.091 162.271 178.31 161.457L178.703 159.974C178.913 159.16 178.445 158.317 177.64 158.097L174.376 157.208L178.129 155.006C178.846 154.585 179.095 153.648 178.684 152.91L177.928 151.58C177.516 150.844 176.588 150.594 175.87 151.015L172.119 153.217L172.988 149.896C173.199 149.082 172.731 148.241 171.926 148.02L170.472 147.628C169.669 147.408 168.846 147.895 168.625 148.709L166.587 156.462L159.706 160.499V152.413L165.284 146.738C165.869 146.145 165.869 145.168 165.284 144.574L164.222 143.494C163.639 142.9 162.681 142.9 162.098 143.494L159.716 145.924V141.531C159.716 140.688 159.046 140 158.213 140H156.709C155.878 140 155.208 140.688 155.208 141.531V145.944L152.825 143.512C152.241 142.919 151.284 142.919 150.7 143.512L149.6 144.594C149.015 145.187 149.015 146.163 149.6 146.757L155.178 152.431V160.519L148.297 156.48L146.259 148.728C146.048 147.915 145.217 147.427 144.412 147.646L142.958 148.038C142.154 148.259 141.675 149.102 141.896 149.915L142.767 153.236L139.014 151.035C138.297 150.613 137.378 150.862 136.956 151.6L136.201 152.93C135.789 153.666 136.029 154.595 136.755 155.026L140.508 157.226L137.244 158.097C136.441 158.317 135.962 159.16 136.182 159.974L136.574 161.457C136.785 162.271 137.617 162.758 138.421 162.538L146.048 160.461L152.929 164.5L146.048 168.539L138.421 166.462C137.617 166.242 136.795 166.729 136.574 167.543L136.182 169.026C135.971 169.84 136.441 170.683 137.244 170.903L140.508 171.792L136.755 173.994C136.038 174.415 135.789 175.352 136.201 176.09L136.956 177.42C137.368 178.156 138.297 178.406 139.014 177.985L142.767 175.783L141.896 179.104C141.685 179.918 142.154 180.759 142.958 180.98L144.412 181.372C145.217 181.592 146.039 181.105 146.259 180.291L148.297 172.538L155.178 168.501V176.587L149.6 182.263C149.015 182.855 149.015 183.832 149.6 184.426L150.662 185.506C151.245 186.1 152.203 186.1 152.786 185.506L155.17 183.076V187.469C155.17 188.312 155.839 189 156.672 189H158.175C159.006 189 159.676 188.312 159.676 187.469V183.056L162.06 185.488C162.643 186.081 163.6 186.081 164.184 185.488L165.247 184.406C165.831 183.813 165.831 182.837 165.247 182.243L159.667 176.569V168.481L166.549 172.52L168.587 180.272C168.798 181.085 169.63 181.574 170.434 181.354L171.888 180.962C172.692 180.741 173.171 179.898 172.951 179.085L172.08 175.764L175.832 177.965C176.55 178.387 177.468 178.138 177.888 177.4L178.646 176.07C179.085 175.352 178.846 174.415 178.119 173.994Z" fill="url(#paint2_linear)"/>
</g>
<g filter="url(#filter3_d)">
<path d="M160.36 54.3512C161.507 51.3627 162.15 48.0949 162.15 44.6875C162.15 29.8847 150.124 17.875 135.3 17.875C129.79 17.875 124.644 19.5508 120.393 22.3996C112.646 8.9934 98.1852 0 81.6 0C56.8757 0 36.85 19.9977 36.85 44.6875C36.85 45.4416 36.8779 46.1957 36.906 46.9498C21.2435 52.452 10 67.3661 10 84.9063C10 107.111 28.0399 125.126 50.275 125.126H153.2C172.974 125.126 189 109.122 189 89.375C189 72.0866 176.693 57.6469 160.36 54.3512Z" fill="url(#paint3_linear)"/>
</g>
<defs>
<filter id="filter0_d" x="16" y="140" width="50.8822" height="57" filterUnits="userSpaceOnUse" color-interpolation-filters="sRGB">
<feFlood flood-opacity="0" result="BackgroundImageFix"/>
<feColorMatrix in="SourceAlpha" type="matrix" values="0 0 0 0 0 0 0 0 0 0 0 0 0 0 0 0 0 0 127 0"/>
<feOffset dy="4"/>
<feGaussianBlur stdDeviation="2"/>
<feColorMatrix type="matrix" values="0 0 0 0 0 0 0 0 0 0 0 0 0 0 0 0 0 0 0.25 0"/>
<feBlend mode="normal" in2="BackgroundImageFix" result="effect1_dropShadow"/>
<feBlend mode="normal" in="SourceGraphic" in2="effect1_dropShadow" result="shape"/>
</filter>
<filter id="filter1_d" x="74" y="140" width="50.8822" height="57" filterUnits="userSpaceOnUse" color-interpolation-filters="sRGB">
<feFlood flood-opacity="0" result="BackgroundImageFix"/>
<feColorMatrix in="SourceAlpha" type="matrix" values="0 0 0 0 0 0 0 0 0 0 0 0 0 0 0 0 0 0 127 0"/>
<feOffset dy="4"/>
<feGaussianBlur stdDeviation="2"/>
<feColorMatrix type="matrix" values="0 0 0 0 0 0 0 0 0 0 0 0 0 0 0 0 0 0 0.25 0"/>
<feBlend mode="normal" in2="BackgroundImageFix" result="effect1_dropShadow"/>
<feBlend mode="normal" in="SourceGraphic" in2="effect1_dropShadow" result="shape"/>
</filter>
<filter id="filter2_d" x="132" y="140" width="50.8822" height="57" filterUnits="userSpaceOnUse" color-interpolation-filters="sRGB">
<feFlood flood-opacity="0" result="BackgroundImageFix"/>
<feColorMatrix in="SourceAlpha" type="matrix" values="0 0 0 0 0 0 0 0 0 0 0 0 0 0 0 0 0 0 127 0"/>
<feOffset dy="4"/>
<feGaussianBlur stdDeviation="2"/>
<feColorMatrix type="matrix" values="0 0 0 0 0 0 0 0 0 0 0 0 0 0 0 0 0 0 0.25 0"/>
<feBlend mode="normal" in2="BackgroundImageFix" result="effect1_dropShadow"/>
<feBlend mode="normal" in="SourceGraphic" in2="effect1_dropShadow" result="shape"/>
</filter>
<filter id="filter3_d" x="0" y="0" width="199" height="145.126" filterUnits="userSpaceOnUse" color-interpolation-filters="sRGB">
<feFlood flood-opacity="0" result="BackgroundImageFix"/>
<feColorMatrix in="SourceAlpha" type="matrix" values="0 0 0 0 0 0 0 0 0 0 0 0 0 0 0 0 0 0 127 0"/>
<feOffset dy="10"/>
<feGaussianBlur stdDeviation="5"/>
<feColorMatrix type="matrix" values="0 0 0 0 0 0 0 0 0 0 0 0 0 0 0 0 0 0 0.4 0"/>
<feBlend mode="normal" in2="BackgroundImageFix" result="effect1_dropShadow"/>
<feBlend mode="normal" in="SourceGraphic" in2="effect1_dropShadow" result="shape"/>
</filter>
<linearGradient id="paint0_linear" x1="41.4408" y1="140" x2="41.4408" y2="189" gradientUnits="userSpaceOnUse">
<stop stop-color="#0BC6BA"/>
<stop offset="0.9999" stop-color="white"/>
<stop offset="1" stop-color="#15B1A7"/>
</linearGradient>
<linearGradient id="paint1_linear" x1="99.4408" y1="140" x2="99.4408" y2="189" gradientUnits="userSpaceOnUse">
<stop stop-color="#0BC6BA"/>
<stop offset="0.9999" stop-color="white"/>
<stop offset="1" stop-color="#15B1A7"/>
</linearGradient>
<linearGradient id="paint2_linear" x1="157.441" y1="140" x2="157.441" y2="189" gradientUnits="userSpaceOnUse">
<stop stop-color="#15B1A7"/>
<stop offset="1" stop-color="white"/>
</linearGradient>
<linearGradient id="paint3_linear" x1="99.5" y1="0" x2="99.5" y2="125.125" gradientUnits="userSpaceOnUse">
<stop stop-color="#6C6C6C"/>
<stop offset="1" stop-color="#8F8F8F"/>
</linearGradient>
</defs>
</svg>
