<svg width="246" height="196" viewBox="0 0 246 196" fill="none" xmlns="http://www.w3.org/2000/svg">
<path d="M206.64 86.7453C208.216 82.6492 209.1 78.1703 209.1 73.5C209.1 53.2109 192.572 36.75 172.2 36.75C164.628 36.75 157.555 39.0469 151.713 42.9516C141.066 24.5766 121.193 12.25 98.4 12.25C64.4213 12.25 36.9 39.6594 36.9 73.5C36.9 74.5336 36.9384 75.5672 36.9769 76.6008C15.4519 84.1422 0 104.584 0 128.625C0 159.059 24.7922 183.75 55.35 183.75H196.8C223.975 183.75 246 161.815 246 134.75C246 111.054 229.087 91.2625 206.64 86.7453Z" fill="url(#paint0_linear)"/>
<defs>
<linearGradient id="paint0_linear" x1="123" y1="12.25" x2="123" y2="183.75" gradientUnits="userSpaceOnUse">
<stop stop-color="#6C6C6C"/>
<stop offset="1" stop-color="#6C6C6C" stop-opacity="0.65"/>
</linearGradient>
</defs>
</svg>
