<svg width="235" height="190" viewBox="0 0 235 190" fill="none" xmlns="http://www.w3.org/2000/svg">
<g clip-path="url(#clip0)">
<g filter="url(#filter0_d)">
<path d="M141.84 46.2294C142.857 43.6875 143.427 40.908 143.427 38.0098C143.427 25.419 132.765 15.2039 119.622 15.2039C114.738 15.2039 110.174 16.6293 106.406 19.0524C99.5373 7.6495 86.7167 0 72.0122 0C50.0918 0 32.3373 17.0094 32.3373 38.0098C32.3373 38.6511 32.362 39.2926 32.3869 39.934C18.5007 44.614 8.53226 57.2994 8.53226 72.2186C8.53226 91.1046 24.5263 106.428 44.2397 106.428H135.492C153.023 106.428 167.232 92.8154 167.232 76.0195C167.232 61.3145 156.321 49.0326 141.84 46.2294Z" fill="url(#paint0_linear)"/>
</g>
</g>
<g clip-path="url(#clip1)">
<g filter="url(#filter1_d)">
<path d="M204.449 120.301C205.365 118.011 205.879 115.507 205.879 112.896C205.879 101.554 196.277 92.352 184.441 92.352C180.042 92.352 175.933 93.636 172.539 95.8188C166.353 85.5468 154.808 78.6559 141.566 78.6559C121.825 78.6559 105.836 93.9784 105.836 112.896C105.836 113.474 105.859 114.052 105.881 114.629C93.3757 118.845 84.3986 130.273 84.3986 143.712C84.3986 160.725 98.8021 174.529 116.555 174.529H198.733C214.521 174.529 227.316 162.266 227.316 147.136C227.316 133.89 217.49 122.826 204.449 120.301Z" fill="url(#paint1_linear)"/>
</g>
</g>
<defs>
<filter id="filter0_d" x="-1.46774" y="0" width="178.7" height="126.428" filterUnits="userSpaceOnUse" color-interpolation-filters="sRGB">
<feFlood flood-opacity="0" result="BackgroundImageFix"/>
<feColorMatrix in="SourceAlpha" type="matrix" values="0 0 0 0 0 0 0 0 0 0 0 0 0 0 0 0 0 0 127 0"/>
<feOffset dy="10"/>
<feGaussianBlur stdDeviation="5"/>
<feColorMatrix type="matrix" values="0 0 0 0 0 0 0 0 0 0 0 0 0 0 0 0 0 0 0.4 0"/>
<feBlend mode="normal" in2="BackgroundImageFix" result="effect1_dropShadow"/>
<feBlend mode="normal" in="SourceGraphic" in2="effect1_dropShadow" result="shape"/>
</filter>
<filter id="filter1_d" x="74.3986" y="78.6559" width="162.918" height="115.873" filterUnits="userSpaceOnUse" color-interpolation-filters="sRGB">
<feFlood flood-opacity="0" result="BackgroundImageFix"/>
<feColorMatrix in="SourceAlpha" type="matrix" values="0 0 0 0 0 0 0 0 0 0 0 0 0 0 0 0 0 0 127 0"/>
<feOffset dy="10"/>
<feGaussianBlur stdDeviation="5"/>
<feColorMatrix type="matrix" values="0 0 0 0 0 0 0 0 0 0 0 0 0 0 0 0 0 0 0.4 0"/>
<feBlend mode="normal" in2="BackgroundImageFix" result="effect1_dropShadow"/>
<feBlend mode="normal" in="SourceGraphic" in2="effect1_dropShadow" result="shape"/>
</filter>
<linearGradient id="paint0_linear" x1="87.8822" y1="0" x2="87.8822" y2="106.427" gradientUnits="userSpaceOnUse">
<stop stop-color="#6C6C6C"/>
<stop offset="1" stop-color="#8F8F8F"/>
</linearGradient>
<linearGradient id="paint1_linear" x1="155.857" y1="78.6559" x2="155.857" y2="174.528" gradientUnits="userSpaceOnUse">
<stop stop-color="#6C6C6C"/>
<stop offset="1" stop-color="#8F8F8F"/>
</linearGradient>
<clipPath id="clip0">
<rect width="175.764" height="123.602" fill="white"/>
</clipPath>
<clipPath id="clip1">
<rect width="158.285" height="111.344" fill="white" transform="translate(76.7149 78.6559)"/>
</clipPath>
</defs>
</svg>
