<svg width="246" height="286" viewBox="0 0 246 286" fill="none" xmlns="http://www.w3.org/2000/svg">
<path d="M206.64 86.7453C208.216 82.6492 209.1 78.1703 209.1 73.5C209.1 53.2109 192.572 36.75 172.2 36.75C164.628 36.75 157.555 39.0469 151.713 42.9516C141.066 24.5766 121.193 12.25 98.4 12.25C64.4213 12.25 36.9 39.6594 36.9 73.5C36.9 74.5336 36.9384 75.5672 36.9769 76.6008C15.4519 84.1422 0 104.584 0 128.625C0 159.059 24.7922 183.75 55.35 183.75H196.8C223.975 183.75 246 161.815 246 134.75C246 111.054 229.087 91.2625 206.64 86.7453Z" fill="url(#paint0_linear)"/>
<g clip-path="url(#clip0)">
<path d="M63.3839 223.75L60.3214 221.953L62.9855 221.227C63.6418 221.047 64.0324 220.359 63.8527 219.695L63.5324 218.484C63.3605 217.82 62.6808 217.422 62.0246 217.602L55.798 219.297L50.1886 216L55.8058 212.703L62.0324 214.398C62.6886 214.578 63.3605 214.18 63.5402 213.516L63.8605 212.305C64.0324 211.641 63.6496 210.953 62.9933 210.773L60.3293 210.047L63.3918 208.25C63.9777 207.906 64.1808 207.141 63.8449 206.539L63.2277 205.453C62.8918 204.852 62.1339 204.648 61.548 204.992L58.4855 206.789L59.1964 204.078C59.3683 203.414 58.9855 202.727 58.3293 202.547L57.1418 202.227C56.4855 202.047 55.8136 202.445 55.6339 203.109L53.9699 209.438L48.3527 212.734V206.133L52.9074 201.5C53.3839 201.016 53.3839 200.219 52.9074 199.734L52.0402 198.852C51.5636 198.367 50.7824 198.367 50.3058 198.852L48.3605 200.836V197.25C48.3605 196.562 47.8136 196 47.1339 196H45.9074C45.2277 196 44.6808 196.562 44.6808 197.25V200.852L42.7355 198.867C42.2589 198.383 41.4777 198.383 41.0011 198.867L40.1027 199.75C39.6261 200.234 39.6261 201.031 40.1027 201.516L44.6574 206.148V212.75L39.0402 209.453L37.3761 203.125C37.2043 202.461 36.5246 202.063 35.8683 202.242L34.6808 202.562C34.0246 202.742 33.6339 203.43 33.8136 204.094L34.5246 206.805L31.4621 205.008C30.8761 204.664 30.1261 204.867 29.7824 205.469L29.1652 206.555C28.8293 207.156 29.0246 207.914 29.6183 208.266L32.6808 210.062L30.0168 210.773C29.3605 210.953 28.9699 211.641 29.1496 212.305L29.4699 213.516C29.6418 214.18 30.3214 214.578 30.9777 214.398L37.2043 212.703L42.8214 216L37.2043 219.297L30.9777 217.602C30.3214 217.422 29.6496 217.82 29.4699 218.484L29.1496 219.695C28.9777 220.359 29.3605 221.047 30.0168 221.227L32.6808 221.953L29.6183 223.75C29.0324 224.094 28.8293 224.859 29.1652 225.461L29.7824 226.547C30.1183 227.148 30.8761 227.352 31.4621 227.008L34.5246 225.211L33.8136 227.922C33.6418 228.586 34.0246 229.273 34.6808 229.453L35.8683 229.773C36.5246 229.953 37.1964 229.555 37.3761 228.891L39.0402 222.562L44.6574 219.266V225.867L40.1027 230.5C39.6261 230.984 39.6261 231.781 40.1027 232.266L40.9699 233.148C41.4464 233.633 42.2277 233.633 42.7043 233.148L44.6496 231.164V234.75C44.6496 235.438 45.1964 236 45.8761 236H47.1027C47.7824 236 48.3293 235.438 48.3293 234.75V231.148L50.2746 233.133C50.7511 233.617 51.5324 233.617 52.0089 233.133L52.8761 232.25C53.3527 231.766 53.3527 230.969 52.8761 230.484L48.3214 225.852V219.25L53.9386 222.547L55.6027 228.875C55.7746 229.539 56.4543 229.938 57.1105 229.758L58.298 229.438C58.9543 229.258 59.3449 228.57 59.1652 227.906L58.4543 225.195L61.5168 226.992C62.1027 227.336 62.8527 227.133 63.1964 226.531L63.8136 225.445C64.173 224.859 63.9777 224.094 63.3839 223.75V223.75Z" fill="url(#paint1_linear)"/>
</g>
<g clip-path="url(#clip1)">
<path d="M104.384 273.75L101.321 271.953L103.985 271.227C104.642 271.047 105.032 270.359 104.853 269.695L104.532 268.484C104.36 267.82 103.681 267.422 103.025 267.602L96.798 269.297L91.1886 266L96.8058 262.703L103.032 264.398C103.689 264.578 104.361 264.18 104.54 263.516L104.861 262.305C105.032 261.641 104.65 260.953 103.993 260.773L101.329 260.047L104.392 258.25C104.978 257.906 105.181 257.141 104.845 256.539L104.228 255.453C103.892 254.852 103.134 254.648 102.548 254.992L99.4855 256.789L100.196 254.078C100.368 253.414 99.9855 252.727 99.3292 252.547L98.1418 252.227C97.4855 252.047 96.8136 252.445 96.6339 253.109L94.9699 259.438L89.3527 262.734V256.133L93.9074 251.5C94.3839 251.016 94.3839 250.219 93.9074 249.734L93.0402 248.852C92.5636 248.367 91.7824 248.367 91.3058 248.852L89.3605 250.836V247.25C89.3605 246.562 88.8136 246 88.1339 246H86.9074C86.2277 246 85.6808 246.562 85.6808 247.25V250.852L83.7355 248.867C83.2589 248.383 82.4777 248.383 82.0011 248.867L81.1027 249.75C80.6261 250.234 80.6261 251.031 81.1027 251.516L85.6574 256.148V262.75L80.0402 259.453L78.3761 253.125C78.2043 252.461 77.5246 252.063 76.8683 252.242L75.6808 252.562C75.0246 252.742 74.6339 253.43 74.8136 254.094L75.5246 256.805L72.4621 255.008C71.8761 254.664 71.1261 254.867 70.7824 255.469L70.1652 256.555C69.8293 257.156 70.0246 257.914 70.6183 258.266L73.6808 260.062L71.0168 260.773C70.3605 260.953 69.9699 261.641 70.1496 262.305L70.4699 263.516C70.6418 264.18 71.3214 264.578 71.9777 264.398L78.2043 262.703L83.8214 266L78.2043 269.297L71.9777 267.602C71.3214 267.422 70.6496 267.82 70.4699 268.484L70.1496 269.695C69.9777 270.359 70.3605 271.047 71.0168 271.227L73.6808 271.953L70.6183 273.75C70.0324 274.094 69.8293 274.859 70.1652 275.461L70.7824 276.547C71.1183 277.148 71.8761 277.352 72.4621 277.008L75.5246 275.211L74.8136 277.922C74.6418 278.586 75.0246 279.273 75.6808 279.453L76.8683 279.773C77.5246 279.953 78.1964 279.555 78.3761 278.891L80.0402 272.562L85.6574 269.266V275.867L81.1027 280.5C80.6261 280.984 80.6261 281.781 81.1027 282.266L81.9699 283.148C82.4464 283.633 83.2277 283.633 83.7043 283.148L85.6496 281.164V284.75C85.6496 285.438 86.1964 286 86.8761 286H88.1027C88.7824 286 89.3293 285.438 89.3293 284.75V281.148L91.2746 283.133C91.7511 283.617 92.5324 283.617 93.0089 283.133L93.8761 282.25C94.3527 281.766 94.3527 280.969 93.8761 280.484L89.3214 275.852V269.25L94.9386 272.547L96.6027 278.875C96.7746 279.539 97.4542 279.938 98.1105 279.758L99.298 279.438C99.9543 279.258 100.345 278.57 100.165 277.906L99.4543 275.195L102.517 276.992C103.103 277.336 103.853 277.133 104.196 276.531L104.814 275.445C105.173 274.859 104.978 274.094 104.384 273.75V273.75Z" fill="url(#paint2_linear)"/>
</g>
<g clip-path="url(#clip2)">
<path d="M139.384 223.75L136.321 221.953L138.986 221.227C139.642 221.047 140.032 220.359 139.853 219.695L139.532 218.484C139.361 217.82 138.681 217.422 138.025 217.602L131.798 219.297L126.189 216L131.806 212.703L138.032 214.398C138.689 214.578 139.361 214.18 139.54 213.516L139.861 212.305C140.032 211.641 139.65 210.953 138.993 210.773L136.329 210.047L139.392 208.25C139.978 207.906 140.181 207.141 139.845 206.539L139.228 205.453C138.892 204.852 138.134 204.648 137.548 204.992L134.486 206.789L135.196 204.078C135.368 203.414 134.986 202.727 134.329 202.547L133.142 202.227C132.486 202.047 131.814 202.445 131.634 203.109L129.97 209.438L124.353 212.734V206.133L128.907 201.5C129.384 201.016 129.384 200.219 128.907 199.734L128.04 198.852C127.564 198.367 126.782 198.367 126.306 198.852L124.361 200.836V197.25C124.361 196.562 123.814 196 123.134 196H121.907C121.228 196 120.681 196.562 120.681 197.25V200.852L118.736 198.867C118.259 198.383 117.478 198.383 117.001 198.867L116.103 199.75C115.626 200.234 115.626 201.031 116.103 201.516L120.657 206.148V212.75L115.04 209.453L113.376 203.125C113.204 202.461 112.525 202.063 111.868 202.242L110.681 202.562C110.025 202.742 109.634 203.43 109.814 204.094L110.525 206.805L107.462 205.008C106.876 204.664 106.126 204.867 105.782 205.469L105.165 206.555C104.829 207.156 105.025 207.914 105.618 208.266L108.681 210.062L106.017 210.773C105.361 210.953 104.97 211.641 105.15 212.305L105.47 213.516C105.642 214.18 106.321 214.578 106.978 214.398L113.204 212.703L118.821 216L113.204 219.297L106.978 217.602C106.321 217.422 105.65 217.82 105.47 218.484L105.15 219.695C104.978 220.359 105.361 221.047 106.017 221.227L108.681 221.953L105.618 223.75C105.032 224.094 104.829 224.859 105.165 225.461L105.782 226.547C106.118 227.148 106.876 227.352 107.462 227.008L110.525 225.211L109.814 227.922C109.642 228.586 110.025 229.273 110.681 229.453L111.868 229.773C112.525 229.953 113.196 229.555 113.376 228.891L115.04 222.562L120.657 219.266V225.867L116.103 230.5C115.626 230.984 115.626 231.781 116.103 232.266L116.97 233.148C117.446 233.633 118.228 233.633 118.704 233.148L120.65 231.164V234.75C120.65 235.438 121.196 236 121.876 236H123.103C123.782 236 124.329 235.438 124.329 234.75V231.148L126.275 233.133C126.751 233.617 127.532 233.617 128.009 233.133L128.876 232.25C129.353 231.766 129.353 230.969 128.876 230.484L124.321 225.852V219.25L129.939 222.547L131.603 228.875C131.775 229.539 132.454 229.938 133.111 229.758L134.298 229.438C134.954 229.258 135.345 228.57 135.165 227.906L134.454 225.195L137.517 226.992C138.103 227.336 138.853 227.133 139.196 226.531L139.814 225.445C140.173 224.859 139.978 224.094 139.384 223.75V223.75Z" fill="url(#paint3_linear)"/>
</g>
<g clip-path="url(#clip3)">
<path d="M215.384 223.75L212.321 221.953L214.986 221.227C215.642 221.047 216.032 220.359 215.853 219.695L215.532 218.484C215.361 217.82 214.681 217.422 214.025 217.602L207.798 219.297L202.189 216L207.806 212.703L214.032 214.398C214.689 214.578 215.361 214.18 215.54 213.516L215.861 212.305C216.032 211.641 215.65 210.953 214.993 210.773L212.329 210.047L215.392 208.25C215.978 207.906 216.181 207.141 215.845 206.539L215.228 205.453C214.892 204.852 214.134 204.648 213.548 204.992L210.486 206.789L211.196 204.078C211.368 203.414 210.986 202.727 210.329 202.547L209.142 202.227C208.486 202.047 207.814 202.445 207.634 203.109L205.97 209.438L200.353 212.734V206.133L204.907 201.5C205.384 201.016 205.384 200.219 204.907 199.734L204.04 198.852C203.564 198.367 202.782 198.367 202.306 198.852L200.361 200.836V197.25C200.361 196.562 199.814 196 199.134 196H197.907C197.228 196 196.681 196.562 196.681 197.25V200.852L194.736 198.867C194.259 198.383 193.478 198.383 193.001 198.867L192.103 199.75C191.626 200.234 191.626 201.031 192.103 201.516L196.657 206.148V212.75L191.04 209.453L189.376 203.125C189.204 202.461 188.525 202.063 187.868 202.242L186.681 202.562C186.025 202.742 185.634 203.43 185.814 204.094L186.525 206.805L183.462 205.008C182.876 204.664 182.126 204.867 181.782 205.469L181.165 206.555C180.829 207.156 181.025 207.914 181.618 208.266L184.681 210.062L182.017 210.773C181.361 210.953 180.97 211.641 181.15 212.305L181.47 213.516C181.642 214.18 182.321 214.578 182.978 214.398L189.204 212.703L194.821 216L189.204 219.297L182.978 217.602C182.321 217.422 181.65 217.82 181.47 218.484L181.15 219.695C180.978 220.359 181.361 221.047 182.017 221.227L184.681 221.953L181.618 223.75C181.032 224.094 180.829 224.859 181.165 225.461L181.782 226.547C182.118 227.148 182.876 227.352 183.462 227.008L186.525 225.211L185.814 227.922C185.642 228.586 186.025 229.273 186.681 229.453L187.868 229.773C188.525 229.953 189.196 229.555 189.376 228.891L191.04 222.562L196.657 219.266V225.867L192.103 230.5C191.626 230.984 191.626 231.781 192.103 232.266L192.97 233.148C193.446 233.633 194.228 233.633 194.704 233.148L196.65 231.164V234.75C196.65 235.438 197.196 236 197.876 236H199.103C199.782 236 200.329 235.438 200.329 234.75V231.148L202.275 233.133C202.751 233.617 203.532 233.617 204.009 233.133L204.876 232.25C205.353 231.766 205.353 230.969 204.876 230.484L200.321 225.852V219.25L205.939 222.547L207.603 228.875C207.775 229.539 208.454 229.938 209.111 229.758L210.298 229.438C210.954 229.258 211.345 228.57 211.165 227.906L210.454 225.195L213.517 226.992C214.103 227.336 214.853 227.133 215.196 226.531L215.814 225.445C216.173 224.859 215.978 224.094 215.384 223.75V223.75Z" fill="url(#paint4_linear)"/>
</g>
<g clip-path="url(#clip4)">
<path d="M174.384 273.75L171.321 271.953L173.985 271.227C174.642 271.047 175.032 270.359 174.853 269.695L174.532 268.484C174.36 267.82 173.681 267.422 173.025 267.602L166.798 269.297L161.189 266L166.806 262.703L173.032 264.398C173.689 264.578 174.361 264.18 174.54 263.516L174.861 262.305C175.032 261.641 174.65 260.953 173.993 260.773L171.329 260.047L174.392 258.25C174.978 257.906 175.181 257.141 174.845 256.539L174.228 255.453C173.892 254.852 173.134 254.648 172.548 254.992L169.485 256.789L170.196 254.078C170.368 253.414 169.985 252.727 169.329 252.547L168.142 252.227C167.486 252.047 166.814 252.445 166.634 253.109L164.97 259.438L159.353 262.734V256.133L163.907 251.5C164.384 251.016 164.384 250.219 163.907 249.734L163.04 248.852C162.564 248.367 161.782 248.367 161.306 248.852L159.361 250.836V247.25C159.361 246.562 158.814 246 158.134 246H156.907C156.228 246 155.681 246.562 155.681 247.25V250.852L153.736 248.867C153.259 248.383 152.478 248.383 152.001 248.867L151.103 249.75C150.626 250.234 150.626 251.031 151.103 251.516L155.657 256.148V262.75L150.04 259.453L148.376 253.125C148.204 252.461 147.525 252.063 146.868 252.242L145.681 252.562C145.025 252.742 144.634 253.43 144.814 254.094L145.525 256.805L142.462 255.008C141.876 254.664 141.126 254.867 140.782 255.469L140.165 256.555C139.829 257.156 140.025 257.914 140.618 258.266L143.681 260.062L141.017 260.773C140.361 260.953 139.97 261.641 140.15 262.305L140.47 263.516C140.642 264.18 141.321 264.578 141.978 264.398L148.204 262.703L153.821 266L148.204 269.297L141.978 267.602C141.321 267.422 140.65 267.82 140.47 268.484L140.15 269.695C139.978 270.359 140.361 271.047 141.017 271.227L143.681 271.953L140.618 273.75C140.032 274.094 139.829 274.859 140.165 275.461L140.782 276.547C141.118 277.148 141.876 277.352 142.462 277.008L145.525 275.211L144.814 277.922C144.642 278.586 145.025 279.273 145.681 279.453L146.868 279.773C147.525 279.953 148.196 279.555 148.376 278.891L150.04 272.562L155.657 269.266V275.867L151.103 280.5C150.626 280.984 150.626 281.781 151.103 282.266L151.97 283.148C152.446 283.633 153.228 283.633 153.704 283.148L155.65 281.164V284.75C155.65 285.438 156.196 286 156.876 286H158.103C158.782 286 159.329 285.438 159.329 284.75V281.148L161.275 283.133C161.751 283.617 162.532 283.617 163.009 283.133L163.876 282.25C164.353 281.766 164.353 280.969 163.876 280.484L159.321 275.852V269.25L164.939 272.547L166.603 278.875C166.775 279.539 167.454 279.938 168.11 279.758L169.298 279.438C169.954 279.258 170.345 278.57 170.165 277.906L169.454 275.195L172.517 276.992C173.103 277.336 173.853 277.133 174.196 276.531L174.814 275.445C175.173 274.859 174.978 274.094 174.384 273.75V273.75Z" fill="url(#paint5_linear)"/>
</g>
<defs>
<linearGradient id="paint0_linear" x1="123" y1="12.25" x2="123" y2="183.75" gradientUnits="userSpaceOnUse">
<stop stop-color="#6C6C6C"/>
<stop offset="1" stop-color="#45746E" stop-opacity="0.67"/>
</linearGradient>
<linearGradient id="paint1_linear" x1="46.5042" y1="196" x2="46.5042" y2="236" gradientUnits="userSpaceOnUse">
<stop stop-color="#0BC6BA"/>
<stop offset="1" stop-color="#0BC6BA" stop-opacity="0.76"/>
</linearGradient>
<linearGradient id="paint2_linear" x1="87.5042" y1="246" x2="87.5042" y2="286" gradientUnits="userSpaceOnUse">
<stop stop-color="#0BC6BA"/>
<stop offset="1" stop-color="#0BC6BA" stop-opacity="0.76"/>
</linearGradient>
<linearGradient id="paint3_linear" x1="122.504" y1="196" x2="122.504" y2="236" gradientUnits="userSpaceOnUse">
<stop stop-color="#0BC6BA"/>
<stop offset="1" stop-color="#0BC6BA" stop-opacity="0.76"/>
</linearGradient>
<linearGradient id="paint4_linear" x1="198.504" y1="196" x2="198.504" y2="236" gradientUnits="userSpaceOnUse">
<stop stop-color="#0BC6BA"/>
<stop offset="1" stop-color="#0BC6BA" stop-opacity="0.76"/>
</linearGradient>
<linearGradient id="paint5_linear" x1="157.504" y1="246" x2="157.504" y2="286" gradientUnits="userSpaceOnUse">
<stop stop-color="#0BC6BA"/>
<stop offset="1" stop-color="#0BC6BA" stop-opacity="0.76"/>
</linearGradient>
<clipPath id="clip0">
<rect width="35" height="40" fill="white" transform="translate(29 196)"/>
</clipPath>
<clipPath id="clip1">
<rect width="35" height="40" fill="white" transform="translate(70 246)"/>
</clipPath>
<clipPath id="clip2">
<rect width="35" height="40" fill="white" transform="translate(105 196)"/>
</clipPath>
<clipPath id="clip3">
<rect width="35" height="40" fill="white" transform="translate(181 196)"/>
</clipPath>
<clipPath id="clip4">
<rect width="35" height="40" fill="white" transform="translate(140 246)"/>
</clipPath>
</defs>
</svg>
