<svg width="244" height="244" viewBox="0 0 244 244" fill="none" xmlns="http://www.w3.org/2000/svg">
<g clip-path="url(#clip0)">
<path d="M134.968 244C172.598 244 206.966 226.879 229.736 198.826C233.104 194.676 229.431 188.613 224.226 189.604C165.035 200.877 110.679 155.494 110.679 95.7433C110.679 61.325 129.104 29.6751 159.049 12.6337C163.665 10.0069 162.504 3.00854 157.259 2.03969C149.906 0.683834 142.445 0.00111341 134.968 0C67.6252 0 12.9677 54.5716 12.9677 122C12.9677 189.343 67.5394 244 134.968 244Z" fill="url(#paint0_linear)"/>
<circle cx="101.5" cy="183.5" r="27.5" fill="#001241"/>
<circle cx="101.5" cy="183.5" r="27" stroke="white" stroke-opacity="0.08"/>
<circle cx="101.5" cy="39.5" r="17.5" fill="#011549"/>
<circle cx="101.5" cy="39.5" r="17" stroke="white" stroke-opacity="0.09"/>
<circle cx="32.5" cy="109.5" r="12.5" fill="#011549"/>
<circle cx="32.5" cy="109.5" r="12" stroke="white" stroke-opacity="0.09"/>
</g>
<defs>
<linearGradient id="paint0_linear" x1="122" y1="0" x2="122" y2="244" gradientUnits="userSpaceOnUse">
<stop stop-color="#0B0039"/>
<stop offset="1" stop-color="#242229"/>
</linearGradient>
<clipPath id="clip0">
<rect width="244" height="244" fill="white"/>
</clipPath>
</defs>
</svg>
