<svg width="180" height="191" viewBox="0 0 180 191" fill="none" xmlns="http://www.w3.org/2000/svg">
<g filter="url(#filter0_d)">
<path d="M174.313 75.4203C167.483 33.4289 132.654 2.97282 92.0006 0.0134837C87.8888 -0.285713 85.3577 4.46074 87.9731 7.64777C98.3992 20.353 104.601 36.6581 104.429 54.416C104.043 94.4178 70.982 126.773 30.9805 126.337C23.7162 126.257 16.7078 125.111 10.1045 123.048C6.15081 121.812 2.67522 125.912 4.50046 129.63C21.5239 164.306 59.7415 185.341 99.8464 178.818C148.962 170.829 182.302 124.536 174.313 75.4203V75.4203Z" fill="#FEE97D"/>
<path d="M13.9487 144.82C21.4961 146.678 29.4145 147.708 37.582 147.79C89.8116 148.312 132.979 109.633 133.484 61.8134C133.707 40.5851 110.887 4.27044 110.71 3.40402C104.676 1.6323 98.4106 0.480246 91.9995 0.0134837C87.8878 -0.285713 85.3567 4.46074 87.9721 7.64777C98.3985 20.353 104.6 36.6581 104.428 54.416C104.042 94.4178 70.9809 126.773 30.9795 126.337C23.7148 126.257 16.7067 125.111 10.1035 123.048C6.14978 121.812 2.67418 125.912 4.49943 129.63C7.15737 135.043 10.3316 140.124 13.9487 144.82Z" fill="#FEE45A"/>
<path d="M72.7141 75.7037C69.6976 73.7472 67.2179 71.3038 65.3105 68.3415C64.4217 66.961 62.4043 66.9372 61.4521 68.2748C59.5198 70.9895 57.0422 73.3842 54.0818 75.4955C52.7189 76.4675 52.7761 78.5384 54.1951 79.4268C57.1475 81.2759 59.6213 83.6699 61.5492 86.6846C62.4377 88.0738 64.4752 88.079 65.3882 86.7058C67.2545 83.8994 69.7607 81.5824 72.7343 79.6234C74.1551 78.6884 74.1408 76.6292 72.7141 75.7037V75.7037Z" fill="#FEE97D"/>
<path d="M27.7041 32.0239C24.6875 30.0674 22.2078 27.6239 20.3004 24.6617C19.4116 23.2812 17.3942 23.2574 16.442 24.5949C14.5097 27.3097 12.0322 29.7044 9.07171 31.8156C7.70883 32.7877 7.76603 34.8586 9.18501 35.747C12.1374 37.5961 14.6113 39.99 16.5392 43.0047C17.4276 44.394 19.4651 44.3991 20.3781 43.026C22.2444 40.2196 24.7506 37.9026 27.7242 35.9435C29.1447 35.0082 29.1307 32.949 27.7041 32.0239V32.0239Z" fill="#FEE97D"/>
<path d="M60.7587 40.4472C59.2396 40.4472 58.0088 39.216 58.0088 37.6973V27.4036C58.0088 25.8848 59.2396 24.6536 60.7587 24.6536C62.2778 24.6536 63.5087 25.8848 63.5087 27.4036V37.6969C63.5087 39.216 62.2778 40.4472 60.7587 40.4472V40.4472Z" fill="#FEF48B"/>
<path d="M65.9056 35.3004H55.6123C54.0932 35.3004 52.8623 34.0691 52.8623 32.5504C52.8623 31.0317 54.0932 29.8005 55.6123 29.8005H65.9056C67.4247 29.8005 68.6556 31.0317 68.6556 32.5504C68.6556 34.0691 67.4247 35.3004 65.9056 35.3004Z" fill="#FEF48B"/>
<path d="M20.0353 91.3276C18.5162 91.3276 17.2853 90.0964 17.2853 88.5776V78.2843C17.2853 76.7656 18.5162 75.5343 20.0353 75.5343C21.5544 75.5343 22.7853 76.7656 22.7853 78.2843V88.5776C22.7853 90.0964 21.554 91.3276 20.0353 91.3276Z" fill="#FEF48B"/>
<path d="M25.1818 86.1808H14.8884C13.3694 86.1808 12.1385 84.9495 12.1385 83.4308C12.1385 81.9121 13.3694 80.6808 14.8884 80.6808H25.1818C26.7009 80.6808 27.9317 81.9121 27.9317 83.4308C27.9317 84.9495 26.7005 86.1808 25.1818 86.1808Z" fill="#FEF48B"/>
</g>
<defs>
<filter id="filter0_d" x="0" y="0" width="179.495" height="191" filterUnits="userSpaceOnUse" color-interpolation-filters="sRGB">
<feFlood flood-opacity="0" result="BackgroundImageFix"/>
<feColorMatrix in="SourceAlpha" type="matrix" values="0 0 0 0 0 0 0 0 0 0 0 0 0 0 0 0 0 0 127 0"/>
<feOffset dy="7"/>
<feGaussianBlur stdDeviation="2"/>
<feColorMatrix type="matrix" values="0 0 0 0 0 0 0 0 0 0 0 0 0 0 0 0 0 0 0.25 0"/>
<feBlend mode="normal" in2="BackgroundImageFix" result="effect1_dropShadow"/>
<feBlend mode="normal" in="SourceGraphic" in2="effect1_dropShadow" result="shape"/>
</filter>
</defs>
</svg>
