<svg width="235" height="190" viewBox="0 0 235 190" fill="none" xmlns="http://www.w3.org/2000/svg">
<g filter="url(#filter0_d)">
<path d="M189.049 58.6402C190.401 55.4159 191.159 51.8902 191.159 48.2139C191.159 32.243 176.983 19.2856 159.509 19.2856C153.014 19.2856 146.948 21.0936 141.937 24.1672C132.805 9.70309 115.759 0 96.209 0C67.0648 0 43.459 21.5758 43.459 48.2139C43.459 49.0275 43.4919 49.8411 43.5251 50.6547C25.0626 56.5911 11.809 72.6821 11.809 91.6065C11.809 115.563 33.074 135 59.284 135H180.609C203.918 135 222.809 117.733 222.809 96.4278C222.809 77.7751 208.302 62.196 189.049 58.6402Z" fill="url(#paint0_linear)"/>
</g>
<g filter="url(#filter1_d)">
<path d="M67.2358 150.346C68.7501 148.368 67.9441 145.797 65.4354 144.602C62.9267 143.409 59.6655 144.044 58.1512 146.022L37.7641 172.654C36.2499 174.632 37.056 177.204 39.5646 178.397C42.0733 179.592 45.3345 178.956 46.8488 176.977L67.2358 150.346Z" fill="url(#paint1_linear)"/>
</g>
<g filter="url(#filter2_d)">
<path d="M111.156 150.346C112.67 148.368 111.864 145.797 109.355 144.602C106.846 143.409 103.585 144.044 102.071 146.022L81.6839 172.654C80.1697 174.632 80.9758 177.204 83.4844 178.397C85.9931 179.592 89.2543 178.956 90.7686 176.977L111.156 150.346Z" fill="url(#paint2_linear)"/>
</g>
<g filter="url(#filter3_d)">
<path d="M155.156 150.346C156.67 148.368 155.864 145.797 153.355 144.602C150.846 143.409 147.585 144.044 146.071 146.022L125.684 172.654C124.17 174.632 124.976 177.204 127.484 178.397C129.993 179.592 133.254 178.956 134.769 176.977L155.156 150.346Z" fill="url(#paint3_linear)"/>
</g>
<g filter="url(#filter4_d)">
<path d="M199.156 150.346C200.67 148.368 199.864 145.797 197.355 144.602C194.846 143.409 191.585 144.044 190.071 146.022L169.684 172.654C168.17 174.632 168.976 177.204 171.484 178.397C173.993 179.592 177.254 178.956 178.769 176.977L199.156 150.346Z" fill="url(#paint4_linear)"/>
</g>
<defs>
<filter id="filter0_d" x="1.80905" y="0" width="231" height="155" filterUnits="userSpaceOnUse" color-interpolation-filters="sRGB">
<feFlood flood-opacity="0" result="BackgroundImageFix"/>
<feColorMatrix in="SourceAlpha" type="matrix" values="0 0 0 0 0 0 0 0 0 0 0 0 0 0 0 0 0 0 127 0"/>
<feOffset dy="10"/>
<feGaussianBlur stdDeviation="5"/>
<feColorMatrix type="matrix" values="0 0 0 0 0 0 0 0 0 0 0 0 0 0 0 0 0 0 0.4 0"/>
<feBlend mode="normal" in2="BackgroundImageFix" result="effect1_dropShadow"/>
<feBlend mode="normal" in="SourceGraphic" in2="effect1_dropShadow" result="shape"/>
</filter>
<filter id="filter1_d" x="33" y="144" width="39" height="44" filterUnits="userSpaceOnUse" color-interpolation-filters="sRGB">
<feFlood flood-opacity="0" result="BackgroundImageFix"/>
<feColorMatrix in="SourceAlpha" type="matrix" values="0 0 0 0 0 0 0 0 0 0 0 0 0 0 0 0 0 0 127 0"/>
<feOffset dy="5"/>
<feGaussianBlur stdDeviation="2"/>
<feColorMatrix type="matrix" values="0 0 0 0 0 0 0 0 0 0 0 0 0 0 0 0 0 0 0.27 0"/>
<feBlend mode="normal" in2="BackgroundImageFix" result="effect1_dropShadow"/>
<feBlend mode="normal" in="SourceGraphic" in2="effect1_dropShadow" result="shape"/>
</filter>
<filter id="filter2_d" x="76.9198" y="144" width="39" height="44" filterUnits="userSpaceOnUse" color-interpolation-filters="sRGB">
<feFlood flood-opacity="0" result="BackgroundImageFix"/>
<feColorMatrix in="SourceAlpha" type="matrix" values="0 0 0 0 0 0 0 0 0 0 0 0 0 0 0 0 0 0 127 0"/>
<feOffset dy="5"/>
<feGaussianBlur stdDeviation="2"/>
<feColorMatrix type="matrix" values="0 0 0 0 0 0 0 0 0 0 0 0 0 0 0 0 0 0 0.27 0"/>
<feBlend mode="normal" in2="BackgroundImageFix" result="effect1_dropShadow"/>
<feBlend mode="normal" in="SourceGraphic" in2="effect1_dropShadow" result="shape"/>
</filter>
<filter id="filter3_d" x="120.92" y="144" width="39" height="44" filterUnits="userSpaceOnUse" color-interpolation-filters="sRGB">
<feFlood flood-opacity="0" result="BackgroundImageFix"/>
<feColorMatrix in="SourceAlpha" type="matrix" values="0 0 0 0 0 0 0 0 0 0 0 0 0 0 0 0 0 0 127 0"/>
<feOffset dy="5"/>
<feGaussianBlur stdDeviation="2"/>
<feColorMatrix type="matrix" values="0 0 0 0 0 0 0 0 0 0 0 0 0 0 0 0 0 0 0.27 0"/>
<feBlend mode="normal" in2="BackgroundImageFix" result="effect1_dropShadow"/>
<feBlend mode="normal" in="SourceGraphic" in2="effect1_dropShadow" result="shape"/>
</filter>
<filter id="filter4_d" x="164.92" y="144" width="39" height="44" filterUnits="userSpaceOnUse" color-interpolation-filters="sRGB">
<feFlood flood-opacity="0" result="BackgroundImageFix"/>
<feColorMatrix in="SourceAlpha" type="matrix" values="0 0 0 0 0 0 0 0 0 0 0 0 0 0 0 0 0 0 127 0"/>
<feOffset dy="5"/>
<feGaussianBlur stdDeviation="2"/>
<feColorMatrix type="matrix" values="0 0 0 0 0 0 0 0 0 0 0 0 0 0 0 0 0 0 0.27 0"/>
<feBlend mode="normal" in2="BackgroundImageFix" result="effect1_dropShadow"/>
<feBlend mode="normal" in="SourceGraphic" in2="effect1_dropShadow" result="shape"/>
</filter>
<linearGradient id="paint0_linear" x1="117.309" y1="0" x2="117.309" y2="134.999" gradientUnits="userSpaceOnUse">
<stop stop-color="#6C6C6C"/>
<stop offset="1" stop-color="#8F8F8F"/>
</linearGradient>
<linearGradient id="paint1_linear" x1="65.4352" y1="144.602" x2="47.5429" y2="182.195" gradientUnits="userSpaceOnUse">
<stop stop-color="#0DA1D0"/>
<stop offset="0.0001" stop-color="#003BD1"/>
<stop offset="0.520833" stop-color="#00147B"/>
</linearGradient>
<linearGradient id="paint2_linear" x1="109.355" y1="144.602" x2="91.4627" y2="182.195" gradientUnits="userSpaceOnUse">
<stop stop-color="#0DA1D0"/>
<stop offset="0.0001" stop-color="#003BD1"/>
<stop offset="0.520833" stop-color="#00147B"/>
</linearGradient>
<linearGradient id="paint3_linear" x1="153.355" y1="144.602" x2="135.463" y2="182.195" gradientUnits="userSpaceOnUse">
<stop stop-color="#0DA1D0"/>
<stop offset="0.0001" stop-color="#003BD1"/>
<stop offset="0.520833" stop-color="#00147B"/>
</linearGradient>
<linearGradient id="paint4_linear" x1="197.355" y1="144.602" x2="179.463" y2="182.195" gradientUnits="userSpaceOnUse">
<stop stop-color="#0DA1D0"/>
<stop offset="0.0001" stop-color="#003BD1"/>
<stop offset="0.520833" stop-color="#00147B"/>
</linearGradient>
</defs>
</svg>
