<svg width="235" height="190" viewBox="0 0 235 190" fill="none" xmlns="http://www.w3.org/2000/svg">
<g filter="url(#filter0_d)">
<path d="M189.049 58.6402C190.401 55.4159 191.159 51.8902 191.159 48.2139C191.159 32.243 176.983 19.2856 159.509 19.2856C153.014 19.2856 146.948 21.0936 141.937 24.1672C132.805 9.70309 115.759 0 96.209 0C67.0648 0 43.459 21.5758 43.459 48.2139C43.459 49.0275 43.4919 49.8411 43.5251 50.6547C25.0626 56.5911 11.8091 72.6821 11.8091 91.6065C11.8091 115.563 33.074 135 59.2841 135H180.609C203.918 135 222.809 117.733 222.809 96.4278C222.809 77.7751 208.302 62.196 189.049 58.6402Z" fill="url(#paint0_linear)"/>
</g>
<g filter="url(#filter1_d)">
<path d="M77.9116 166.349L74.8907 164.707L77.5187 164.044C78.166 163.88 78.5509 163.251 78.3737 162.644L78.0573 161.538C77.8891 160.931 77.2184 160.568 76.571 160.732L70.4295 162.281L64.8974 159.269L70.4375 156.257L76.5783 157.806C77.2256 157.97 77.8891 157.607 78.0654 157L78.3818 155.894C78.5509 155.287 78.1741 154.659 77.5259 154.495L74.898 153.832L77.9196 152.19C78.4969 151.876 78.6974 151.177 78.3665 150.627L77.7578 149.635C77.4261 149.086 76.6789 148.9 76.1008 149.214L73.0808 150.856L73.7804 148.379C73.9503 147.772 73.5735 147.145 72.9254 146.98L71.7547 146.688C71.1082 146.524 70.4456 146.887 70.2676 147.494L68.6268 153.275L63.0866 156.286V150.256L67.5777 146.024C68.0487 145.582 68.0487 144.854 67.5777 144.411L66.7226 143.605C66.2532 143.162 65.4819 143.162 65.0125 143.605L63.0947 145.417V142.142C63.0947 141.513 62.5552 141 61.8845 141H60.674C60.0043 141 59.4648 141.513 59.4648 142.142V145.432L57.5465 143.619C57.076 143.177 56.3057 143.177 55.8352 143.619L54.9496 144.426C54.479 144.868 54.479 145.596 54.9496 146.039L59.4411 150.27V156.301L53.9011 153.289L52.2599 147.508C52.0903 146.902 51.4206 146.538 50.7726 146.701L49.6018 146.994C48.9548 147.159 48.5692 147.787 48.7467 148.393L49.448 150.87L46.427 149.229C45.849 148.914 45.1093 149.1 44.77 149.65L44.1614 150.642C43.83 151.19 44.0234 151.883 44.6082 152.205L47.6293 153.845L45.0018 154.495C44.3548 154.659 43.9691 155.287 44.1466 155.894L44.4623 157C44.632 157.607 45.3016 157.97 45.9496 157.806L52.0903 156.257L57.6303 159.269L52.0903 162.281L45.9496 160.732C45.3016 160.568 44.6399 160.931 44.4623 161.538L44.1466 162.644C43.977 163.251 44.3548 163.88 45.0018 164.044L47.6293 164.707L44.6082 166.349C44.0303 166.663 43.83 167.361 44.1614 167.912L44.77 168.903C45.1014 169.452 45.849 169.639 46.427 169.325L49.448 167.683L48.7467 170.159C48.5771 170.766 48.9548 171.393 49.6018 171.558L50.7726 171.85C51.4206 172.014 52.0824 171.651 52.2599 171.044L53.9011 165.263L59.4411 162.253V168.282L54.9496 172.515C54.479 172.956 54.479 173.685 54.9496 174.128L55.8047 174.933C56.2742 175.376 57.0454 175.376 57.5149 174.933L59.4342 173.121V176.397C59.4342 177.025 59.9727 177.538 60.6434 177.538H61.8539C62.523 177.538 63.0625 177.025 63.0625 176.397V173.106L64.9819 174.92C65.4513 175.362 66.2218 175.362 66.692 174.92L67.5479 174.113C68.0181 173.671 68.0181 172.943 67.5479 172.5L63.0552 168.269V162.238L68.5962 165.25L70.237 171.03C70.4069 171.636 71.0768 172.001 71.7241 171.837L72.8948 171.545C73.5421 171.38 73.9278 170.751 73.7506 170.145L73.0494 167.669L76.0703 169.31C76.6483 169.625 77.3875 169.439 77.7256 168.889L78.3359 167.897C78.6894 167.361 78.4969 166.663 77.9116 166.349Z" fill="url(#paint1_linear)"/>
</g>
<g filter="url(#filter2_d)">
<path d="M133.599 166.349L130.578 164.707L133.206 164.044C133.853 163.88 134.238 163.251 134.061 162.644L133.745 161.538C133.576 160.931 132.906 160.568 132.258 160.732L126.117 162.281L120.585 159.269L126.125 156.257L132.265 157.806C132.913 157.97 133.576 157.607 133.753 157L134.069 155.894C134.238 155.287 133.861 154.659 133.213 154.495L130.585 153.832L133.607 152.19C134.184 151.876 134.385 151.177 134.054 150.627L133.445 149.635C133.113 149.086 132.366 148.9 131.788 149.214L128.768 150.856L129.468 148.379C129.638 147.772 129.261 147.145 128.613 146.98L127.442 146.688C126.795 146.524 126.133 146.887 125.955 147.494L124.314 153.275L118.774 156.286V150.256L123.265 146.024C123.736 145.582 123.736 144.854 123.265 144.411L122.41 143.605C121.94 143.162 121.169 143.162 120.7 143.605L118.782 145.417V142.142C118.782 141.513 118.242 141 117.572 141H116.361C115.692 141 115.152 141.513 115.152 142.142V145.432L113.234 143.619C112.763 143.177 111.993 143.177 111.522 143.619L110.637 144.426C110.166 144.868 110.166 145.596 110.637 146.039L115.128 150.27V156.301L109.588 153.289L107.947 147.508C107.777 146.902 107.108 146.538 106.46 146.701L105.289 146.994C104.642 147.159 104.256 147.787 104.434 148.393L105.135 150.87L102.114 149.229C101.536 148.914 100.796 149.1 100.457 149.65L99.8487 150.642C99.5173 151.19 99.7106 151.883 100.295 152.205L103.316 153.845L100.689 154.495C100.042 154.659 99.6563 155.287 99.8338 155.894L100.15 157C100.319 157.607 100.989 157.97 101.637 157.806L107.777 156.257L113.317 159.269L107.777 162.281L101.637 160.732C100.989 160.568 100.327 160.931 100.15 161.538L99.8338 162.644C99.6642 163.251 100.042 163.88 100.689 164.044L103.316 164.707L100.295 166.349C99.7175 166.663 99.5173 167.361 99.8487 167.912L100.457 168.903C100.789 169.452 101.536 169.639 102.114 169.325L105.135 167.683L104.434 170.159C104.264 170.766 104.642 171.393 105.289 171.558L106.46 171.85C107.108 172.014 107.77 171.651 107.947 171.044L109.588 165.263L115.128 162.253V168.282L110.637 172.515C110.166 172.956 110.166 173.685 110.637 174.128L111.492 174.933C111.961 175.376 112.733 175.376 113.202 174.933L115.121 173.121V176.397C115.121 177.025 115.66 177.538 116.331 177.538H117.541C118.21 177.538 118.75 177.025 118.75 176.397V173.106L120.669 174.92C121.139 175.362 121.909 175.362 122.379 174.92L123.235 174.113C123.705 173.671 123.705 172.943 123.235 172.5L118.742 168.269V162.238L124.283 165.25L125.924 171.03C126.094 171.636 126.764 172.001 127.411 171.837L128.582 171.545C129.229 171.38 129.615 170.751 129.438 170.145L128.737 167.669L131.757 169.31C132.336 169.625 133.075 169.439 133.413 168.889L134.023 167.897C134.377 167.361 134.184 166.663 133.599 166.349Z" fill="url(#paint2_linear)"/>
</g>
<g filter="url(#filter3_d)">
<path d="M189.286 166.349L186.265 164.707L188.893 164.044C189.54 163.88 189.925 163.251 189.748 162.644L189.432 161.538C189.263 160.931 188.593 160.568 187.945 160.732L181.804 162.281L176.272 159.269L181.812 156.257L187.953 157.806C188.6 157.97 189.263 157.607 189.44 157L189.756 155.894C189.925 155.287 189.548 154.659 188.9 154.495L186.272 153.832L189.294 152.19C189.871 151.876 190.072 151.177 189.741 150.627L189.132 149.635C188.801 149.086 188.053 148.9 187.475 149.214L184.455 150.856L185.155 148.379C185.325 147.772 184.948 147.145 184.3 146.98L183.129 146.688C182.483 146.524 181.82 146.887 181.642 147.494L180.001 153.275L174.461 156.286V150.256L178.952 146.024C179.423 145.582 179.423 144.854 178.952 144.411L178.097 143.605C177.628 143.162 176.856 143.162 176.387 143.605L174.469 145.417V142.142C174.469 141.513 173.93 141 173.259 141H172.048C171.379 141 170.839 141.513 170.839 142.142V145.432L168.921 143.619C168.45 143.177 167.68 143.177 167.21 143.619L166.324 144.426C165.853 144.868 165.853 145.596 166.324 146.039L170.816 150.27V156.301L165.276 153.289L163.634 147.508C163.465 146.902 162.795 146.538 162.147 146.701L160.976 146.994C160.329 147.159 159.944 147.787 160.121 148.393L160.822 150.87L157.801 149.229C157.223 148.914 156.484 149.1 156.144 149.65L155.536 150.642C155.204 151.19 155.398 151.883 155.983 152.205L159.004 153.845L156.376 154.495C155.729 154.659 155.344 155.287 155.521 155.894L155.837 157C156.006 157.607 156.676 157.97 157.324 157.806L163.465 156.257L169.005 159.269L163.465 162.281L157.324 160.732C156.676 160.568 156.014 160.931 155.837 161.538L155.521 162.644C155.351 163.251 155.729 163.88 156.376 164.044L159.004 164.707L155.983 166.349C155.405 166.663 155.204 167.361 155.536 167.912L156.144 168.903C156.476 169.452 157.223 169.639 157.801 169.325L160.822 167.683L160.121 170.159C159.951 170.766 160.329 171.393 160.976 171.558L162.147 171.85C162.795 172.014 163.457 171.651 163.634 171.044L165.276 165.263L170.816 162.253V168.282L166.324 172.515C165.853 172.956 165.853 173.685 166.324 174.128L167.179 174.933C167.649 175.376 168.42 175.376 168.889 174.933L170.809 173.121V176.397C170.809 177.025 171.347 177.538 172.018 177.538H173.228C173.897 177.538 174.437 177.025 174.437 176.397V173.106L176.356 174.92C176.826 175.362 177.596 175.362 178.066 174.92L178.922 174.113C179.392 173.671 179.392 172.943 178.922 172.5L174.43 168.269V162.238L179.971 165.25L181.611 171.03C181.781 171.636 182.451 172.001 183.099 171.837L184.269 171.545C184.917 171.38 185.302 170.751 185.125 170.145L184.424 167.669L187.445 169.31C188.023 169.625 188.762 169.439 189.1 168.889L189.71 167.897C190.064 167.361 189.871 166.663 189.286 166.349Z" fill="url(#paint3_linear)"/>
</g>
<defs>
<filter id="filter0_d" x="1.80905" y="0" width="231" height="155" filterUnits="userSpaceOnUse" color-interpolation-filters="sRGB">
<feFlood flood-opacity="0" result="BackgroundImageFix"/>
<feColorMatrix in="SourceAlpha" type="matrix" values="0 0 0 0 0 0 0 0 0 0 0 0 0 0 0 0 0 0 127 0"/>
<feOffset dy="10"/>
<feGaussianBlur stdDeviation="5"/>
<feColorMatrix type="matrix" values="0 0 0 0 0 0 0 0 0 0 0 0 0 0 0 0 0 0 0.4 0"/>
<feBlend mode="normal" in2="BackgroundImageFix" result="effect1_dropShadow"/>
<feBlend mode="normal" in="SourceGraphic" in2="effect1_dropShadow" result="shape"/>
</filter>
<filter id="filter1_d" x="40" y="141" width="42.5261" height="44.5385" filterUnits="userSpaceOnUse" color-interpolation-filters="sRGB">
<feFlood flood-opacity="0" result="BackgroundImageFix"/>
<feColorMatrix in="SourceAlpha" type="matrix" values="0 0 0 0 0 0 0 0 0 0 0 0 0 0 0 0 0 0 127 0"/>
<feOffset dy="4"/>
<feGaussianBlur stdDeviation="2"/>
<feColorMatrix type="matrix" values="0 0 0 0 0 0 0 0 0 0 0 0 0 0 0 0 0 0 0.25 0"/>
<feBlend mode="normal" in2="BackgroundImageFix" result="effect1_dropShadow"/>
<feBlend mode="normal" in="SourceGraphic" in2="effect1_dropShadow" result="shape"/>
</filter>
<filter id="filter2_d" x="95.6872" y="141" width="42.5261" height="44.5385" filterUnits="userSpaceOnUse" color-interpolation-filters="sRGB">
<feFlood flood-opacity="0" result="BackgroundImageFix"/>
<feColorMatrix in="SourceAlpha" type="matrix" values="0 0 0 0 0 0 0 0 0 0 0 0 0 0 0 0 0 0 127 0"/>
<feOffset dy="4"/>
<feGaussianBlur stdDeviation="2"/>
<feColorMatrix type="matrix" values="0 0 0 0 0 0 0 0 0 0 0 0 0 0 0 0 0 0 0.25 0"/>
<feBlend mode="normal" in2="BackgroundImageFix" result="effect1_dropShadow"/>
<feBlend mode="normal" in="SourceGraphic" in2="effect1_dropShadow" result="shape"/>
</filter>
<filter id="filter3_d" x="151.374" y="141" width="42.5261" height="44.5385" filterUnits="userSpaceOnUse" color-interpolation-filters="sRGB">
<feFlood flood-opacity="0" result="BackgroundImageFix"/>
<feColorMatrix in="SourceAlpha" type="matrix" values="0 0 0 0 0 0 0 0 0 0 0 0 0 0 0 0 0 0 127 0"/>
<feOffset dy="4"/>
<feGaussianBlur stdDeviation="2"/>
<feColorMatrix type="matrix" values="0 0 0 0 0 0 0 0 0 0 0 0 0 0 0 0 0 0 0.25 0"/>
<feBlend mode="normal" in2="BackgroundImageFix" result="effect1_dropShadow"/>
<feBlend mode="normal" in="SourceGraphic" in2="effect1_dropShadow" result="shape"/>
</filter>
<linearGradient id="paint0_linear" x1="117.309" y1="0" x2="117.309" y2="134.999" gradientUnits="userSpaceOnUse">
<stop stop-color="#6C6C6C"/>
<stop offset="1" stop-color="#8F8F8F"/>
</linearGradient>
<linearGradient id="paint1_linear" x1="61.2628" y1="141" x2="61.2628" y2="177.538" gradientUnits="userSpaceOnUse">
<stop stop-color="#0BC6BA"/>
<stop offset="0.9999" stop-color="white"/>
<stop offset="1" stop-color="#15B1A7"/>
</linearGradient>
<linearGradient id="paint2_linear" x1="116.95" y1="141" x2="116.95" y2="177.538" gradientUnits="userSpaceOnUse">
<stop stop-color="#0BC6BA"/>
<stop offset="0.9999" stop-color="white"/>
<stop offset="1" stop-color="#15B1A7"/>
</linearGradient>
<linearGradient id="paint3_linear" x1="172.637" y1="141" x2="172.637" y2="177.538" gradientUnits="userSpaceOnUse">
<stop stop-color="#0BC6BA"/>
<stop offset="0.9999" stop-color="white"/>
<stop offset="1" stop-color="#15B1A7"/>
</linearGradient>
</defs>
</svg>
