<svg width="190" height="190" viewBox="0 0 190 190" fill="none" xmlns="http://www.w3.org/2000/svg">
<g filter="url(#filter0_d)">
<path d="M88.9332 19.2C88.9332 22.5503 91.6493 25.2668 95 25.2668C98.3503 25.2668 101.067 22.5507 101.067 19.2V7.06679C101.067 3.71608 98.3503 1 95 1C91.6493 1 88.9332 3.71608 88.9332 7.06679V19.2Z" fill="#FFD900"/>
<path d="M88.9332 176.933C88.9332 180.284 91.6493 183 95 183C98.3503 183 101.067 180.284 101.067 176.933V164.8C101.067 161.45 98.3507 158.733 95 158.733C91.6493 158.733 88.9332 161.449 88.9332 164.8V176.933Z" fill="#FFD900"/>
<path d="M167.8 85.9332C164.45 85.9332 161.733 88.6493 161.733 92C161.733 95.3507 164.449 98.0668 167.8 98.0668H179.933C183.284 98.0668 186 95.3507 186 92C186 88.6493 183.284 85.9332 179.933 85.9332H167.8Z" fill="#FFD900"/>
<path d="M10.0668 85.9332C6.71608 85.9332 4 88.6493 4 92C4 95.3507 6.71608 98.0668 10.0668 98.0668H22.2C25.5503 98.0668 28.2668 95.3507 28.2668 92C28.2668 88.6493 25.5507 85.9332 22.2 85.9332H10.0668Z" fill="#FFD900"/>
<path d="M95 146.6C125.155 146.6 149.6 122.155 149.6 92C149.6 61.8452 125.155 37.4 95 37.4C64.8452 37.4 40.4 61.8452 40.4 92C40.4 122.155 64.8452 146.6 95 146.6Z" fill="#FFD900"/>
<path d="M142.187 36.2329C139.818 38.6022 139.818 42.4433 142.187 44.8126C144.557 47.1819 148.398 47.1819 150.767 44.8126L159.347 36.2329C161.716 33.8636 161.716 30.0226 159.347 27.6533C156.977 25.284 153.136 25.284 150.767 27.6533L142.187 36.2329Z" fill="#FFD900"/>
<path d="M30.6533 147.767C28.284 150.136 28.284 153.977 30.6533 156.347C33.0226 158.716 36.8636 158.716 39.2329 156.347L47.8126 147.767C50.1819 145.398 50.1819 141.557 47.8126 139.187C45.4433 136.818 41.6022 136.818 39.2329 139.187L30.6533 147.767Z" fill="#FFD900"/>
<path d="M150.767 139.187C148.398 136.818 144.557 136.818 142.187 139.187C139.818 141.557 139.818 145.398 142.187 147.767L150.767 156.347C153.136 158.716 156.977 158.716 159.347 156.347C161.716 153.977 161.716 150.136 159.347 147.767L150.767 139.187Z" fill="#FFD900"/>
<path d="M39.2329 27.6533C36.8636 25.284 33.0226 25.284 30.6533 27.6533C28.284 30.0226 28.284 33.8636 30.6533 36.2329L39.2329 44.8126C41.6022 47.1819 45.4433 47.1819 47.8126 44.8126C50.1819 42.4433 50.1819 38.6022 47.8126 36.2329L39.2329 27.6533Z" fill="#FFD900"/>
<path d="M67.1423 27.4918C66.0646 27.4918 65.0418 26.8535 64.6038 25.7956L62.2821 20.1906C61.7017 18.7891 62.3671 17.1826 63.7685 16.6022C65.1699 16.0225 66.7764 16.6868 67.3569 18.0886L69.6786 23.6936C70.259 25.095 69.5936 26.7015 68.1922 27.282C67.8487 27.4241 67.4927 27.4918 67.1423 27.4918V27.4918Z" fill="#FFA400"/>
<path d="M125.183 167.613C124.105 167.613 123.083 166.975 122.644 165.917L120.323 160.312C119.742 158.911 120.407 157.304 121.809 156.724C123.21 156.143 124.817 156.808 125.397 158.21L127.719 163.815C128.3 165.217 127.634 166.823 126.233 167.404C125.889 167.546 125.533 167.613 125.183 167.613V167.613Z" fill="#FFA400"/>
<path d="M27.7453 66.895C27.3949 66.895 27.0389 66.8276 26.6954 66.6852L21.0904 64.3635C19.689 63.783 19.0236 62.1765 19.604 60.7751C20.1844 59.3737 21.7917 58.7072 23.1924 59.2887L28.7974 61.6104C30.1988 62.1908 30.8642 63.7973 30.2838 65.1988C29.8458 66.2563 28.823 66.895 27.7453 66.895Z" fill="#FFA400"/>
<path d="M167.867 124.936C167.517 124.936 167.161 124.868 166.817 124.726L161.212 122.404C159.811 121.824 159.145 120.217 159.726 118.816C160.307 117.415 161.914 116.748 163.314 117.329L168.919 119.651C170.321 120.232 170.987 121.838 170.406 123.24C169.968 124.297 168.945 124.936 167.867 124.936Z" fill="#FFA400"/>
<path d="M22.1487 124.936C21.071 124.936 20.0482 124.298 19.6103 123.24C19.0298 121.838 19.6956 120.232 21.0967 119.651L26.7017 117.33C28.1027 116.749 29.7096 117.414 30.29 118.816C30.8705 120.217 30.2051 121.824 28.8036 122.404L23.1986 124.726C22.8551 124.868 22.4992 124.936 22.1487 124.936V124.936Z" fill="#FFA400"/>
<path d="M162.27 66.895C161.193 66.895 160.17 66.2567 159.732 65.1988C159.151 63.7973 159.817 62.1908 161.218 61.6104L166.823 59.2887C168.224 58.7083 169.831 59.3737 170.412 60.7751C170.993 62.1765 170.327 63.783 168.925 64.3635L163.32 66.6852C162.977 66.8276 162.621 66.895 162.27 66.895V66.895Z" fill="#FFA400"/>
<path d="M64.833 167.613C64.483 167.613 64.1267 167.546 63.7832 167.404C62.3817 166.823 61.7163 165.217 62.2968 163.815L64.6185 158.21C65.1985 156.809 66.8057 156.142 68.2068 156.724C69.6083 157.304 70.2736 158.911 69.6932 160.312L67.3715 165.917C66.9336 166.975 65.9108 167.613 64.833 167.613V167.613Z" fill="#FFA400"/>
<path d="M122.873 27.4918C122.523 27.4918 122.167 27.4244 121.824 27.282C120.422 26.7015 119.756 25.095 120.337 23.6936L122.659 18.0886C123.24 16.6875 124.847 16.021 126.247 16.6022C127.649 17.1826 128.314 18.7891 127.734 20.1906L125.412 25.7956C124.974 26.8532 123.952 27.4918 122.873 27.4918V27.4918Z" fill="#FFA400"/>
<path d="M95 37.4C93.5828 37.4 92.1785 37.4542 90.7887 37.56C118.976 39.71 141.177 63.2623 141.177 92C141.177 120.738 118.976 144.29 90.7887 146.44C92.1785 146.546 93.5828 146.6 95 146.6C125.155 146.6 149.6 122.155 149.6 92.0004C149.6 61.8455 125.155 37.4 95 37.4V37.4Z" fill="#FFBB00"/>
<path d="M22.2 85.9332H13.7775C17.1278 85.9332 19.8443 88.6493 19.8443 92C19.8443 95.3503 17.1282 98.0668 13.7775 98.0668H22.2C25.5503 98.0668 28.2668 95.3507 28.2668 92C28.2668 88.6497 25.5503 85.9332 22.2 85.9332V85.9332Z" fill="#FFBB00"/>
<path d="M179.933 85.9332H171.511C174.861 85.9332 177.577 88.6493 177.577 92C177.577 95.3503 174.861 98.0668 171.511 98.0668H179.933C183.284 98.0668 186 95.3507 186 92C186 88.6497 183.284 85.9332 179.933 85.9332Z" fill="#FFBB00"/>
<path d="M95 1C93.3627 1 91.88 1.65146 90.7887 2.70538C91.9309 3.80873 92.6443 5.35335 92.6443 7.06679V19.2C92.6443 20.9134 91.9309 22.4581 90.7887 23.561C91.88 24.615 93.3627 25.2664 95 25.2664C98.3503 25.2664 101.067 22.5503 101.067 19.1996V7.06679C101.067 3.71608 98.3503 1 95 1V1Z" fill="#FFBB00"/>
<path d="M95 158.733C93.3627 158.733 91.88 159.385 90.7887 160.439C91.9309 161.542 92.6443 163.086 92.6443 164.8V176.933C92.6443 178.646 91.9309 180.191 90.7887 181.294C91.88 182.348 93.3627 182.999 95 182.999C98.3503 182.999 101.067 180.283 101.067 176.932V164.8C101.067 161.449 98.3503 158.733 95 158.733V158.733Z" fill="#FFBB00"/>
<path d="M159.347 27.6533C157.003 25.3093 153.22 25.2884 150.846 27.5823C150.871 27.6072 150.899 27.628 150.924 27.6533C153.293 30.0226 153.293 33.8636 150.924 36.2329L142.345 44.8126C142.319 44.8378 142.291 44.8587 142.266 44.8836C144.641 47.1775 148.423 47.1566 150.767 44.8126L159.347 36.2329C161.716 33.8636 161.716 30.0226 159.347 27.6533Z" fill="#FFBB00"/>
<path d="M159.347 147.767L150.767 139.187C148.423 136.843 144.641 136.823 142.266 139.116C142.292 139.141 142.319 139.162 142.345 139.187L150.924 147.767C153.293 150.136 153.293 153.977 150.924 156.347C150.899 156.372 150.871 156.393 150.846 156.418C153.22 158.712 157.003 158.691 159.347 156.347C161.716 153.977 161.716 150.136 159.347 147.767Z" fill="#FFBB00"/>
<path d="M47.8126 36.2329L39.2329 27.6533C36.8918 25.3122 33.1163 25.2888 30.7412 27.5742C30.7697 27.6017 30.8009 27.6251 30.8287 27.6533L39.4083 36.2329C41.7776 38.6022 41.7776 42.4433 39.4083 44.8126C39.3801 44.8408 39.3494 44.8642 39.3208 44.8917C41.696 47.1771 45.4718 47.1533 47.8126 44.8126C50.1815 42.4433 50.1815 38.6019 47.8126 36.2329Z" fill="#FFBB00"/>
<path d="M47.8126 139.187C45.4715 136.846 41.696 136.823 39.3208 139.108C39.3494 139.136 39.3801 139.159 39.4083 139.187C41.7776 141.557 41.7776 145.398 39.4083 147.767L30.8287 156.347C30.8005 156.375 30.7697 156.398 30.7412 156.426C33.1163 158.711 36.8922 158.687 39.2329 156.347L47.8126 147.767C50.1815 145.398 50.1815 141.557 47.8126 139.187Z" fill="#FFBB00"/>
</g>
<defs>
<filter id="filter0_d" x="0" y="0" width="190" height="190" filterUnits="userSpaceOnUse" color-interpolation-filters="sRGB">
<feFlood flood-opacity="0" result="BackgroundImageFix"/>
<feColorMatrix in="SourceAlpha" type="matrix" values="0 0 0 0 0 0 0 0 0 0 0 0 0 0 0 0 0 0 127 0"/>
<feOffset dy="3"/>
<feGaussianBlur stdDeviation="2"/>
<feColorMatrix type="matrix" values="0 0 0 0 0 0 0 0 0 0 0 0 0 0 0 0 0 0 0.25 0"/>
<feBlend mode="normal" in2="BackgroundImageFix" result="effect1_dropShadow"/>
<feBlend mode="normal" in="SourceGraphic" in2="effect1_dropShadow" result="shape"/>
</filter>
</defs>
</svg>
