<svg width="244" height="244" viewBox="0 0 244 244" fill="none" xmlns="http://www.w3.org/2000/svg">
<g clip-path="url(#clip0)">
<path d="M122 76.25C96.7898 76.25 76.25 96.7898 76.25 122C76.25 147.21 96.7898 167.75 122 167.75C147.21 167.75 167.75 147.21 167.75 122C167.75 96.7898 147.21 76.25 122 76.25ZM239.425 114.613L194.295 92.0719L210.259 44.225C212.404 37.7438 206.256 31.5961 199.823 33.7883L151.976 49.7531L129.387 4.575C126.337 -1.525 117.663 -1.525 114.613 4.575L92.0719 49.7055L44.1773 33.7406C37.6961 31.5961 31.5484 37.7437 33.7406 44.1773L49.7055 92.0242L4.575 114.613C-1.525 117.663 -1.525 126.337 4.575 129.387L49.7055 151.928L33.7406 199.823C31.5961 206.304 37.7437 212.452 44.1773 210.259L92.0242 194.295L114.566 239.425C117.616 245.525 126.289 245.525 129.339 239.425L151.88 194.295L199.727 210.259C206.209 212.404 212.356 206.256 210.164 199.823L194.199 151.976L239.33 129.434C245.525 126.337 245.525 117.663 239.425 114.613V114.613ZM165.129 165.129C141.348 188.909 102.652 188.909 78.8711 165.129C55.0906 141.348 55.0906 102.652 78.8711 78.8711C102.652 55.0906 141.348 55.0906 165.129 78.8711C188.909 102.652 188.909 141.348 165.129 165.129Z" fill="url(#paint0_linear)"/>
</g>
<defs>
<linearGradient id="paint0_linear" x1="121.994" y1="0" x2="121.994" y2="244" gradientUnits="userSpaceOnUse">
<stop stop-color="#FFF500"/>
<stop offset="1" stop-color="#FFF069"/>
</linearGradient>
<clipPath id="clip0">
<rect width="244" height="244" fill="white"/>
</clipPath>
</defs>
</svg>
