<svg width="246" height="279" viewBox="0 0 246 279" fill="none" xmlns="http://www.w3.org/2000/svg">
<path d="M206.64 86.7453C208.216 82.6492 209.1 78.1703 209.1 73.5C209.1 53.2109 192.572 36.75 172.2 36.75C164.628 36.75 157.555 39.0469 151.713 42.9516C141.066 24.5766 121.193 12.25 98.4 12.25C64.4213 12.25 36.9 39.6594 36.9 73.5C36.9 74.5336 36.9384 75.5672 36.9769 76.6008C15.4519 84.1422 0 104.584 0 128.625C0 159.059 24.7922 183.75 55.35 183.75H196.8C223.975 183.75 246 161.815 246 134.75C246 111.054 229.087 91.2625 206.64 86.7453Z" fill="url(#paint0_linear)"/>
<path d="M61.0337 213.128C63.6207 208.843 62.2435 203.271 57.9577 200.684C53.6719 198.097 48.1004 199.474 45.5134 203.76L10.6842 261.461C8.09723 265.747 9.47439 271.318 13.7602 273.905C18.046 276.492 23.6175 275.115 26.2044 270.829L61.0337 213.128Z" fill="url(#paint1_linear)"/>
<path d="M114.034 213.128C116.621 208.843 115.244 203.271 110.958 200.684C106.672 198.097 101.101 199.474 98.5138 203.76L63.6846 261.461C61.0976 265.747 62.4748 271.318 66.7606 273.905C71.0464 276.492 76.6179 275.115 79.2048 270.829L114.034 213.128Z" fill="url(#paint2_linear)"/>
<path d="M162.034 213.128C164.621 208.843 163.244 203.271 158.958 200.684C154.672 198.097 149.101 199.474 146.514 203.76L111.685 261.461C109.098 265.747 110.475 271.318 114.761 273.905C119.046 276.492 124.618 275.115 127.205 270.829L162.034 213.128Z" fill="url(#paint3_linear)"/>
<path d="M206.034 213.128C208.621 208.843 207.244 203.271 202.958 200.684C198.672 198.097 193.101 199.474 190.514 203.76L155.685 261.461C153.098 265.747 154.475 271.318 158.761 273.905C163.046 276.492 168.618 275.115 171.205 270.829L206.034 213.128Z" fill="url(#paint4_linear)"/>
<g clip-path="url(#clip0)">
<path d="M104.559 115.962C104.258 115.517 103.727 115.285 103.195 115.37L87.0071 117.95L98.9632 90.1788C99.1626 89.7157 99.094 89.1803 98.7842 88.7828C98.4741 88.3839 97.9718 88.1866 97.4746 88.2658L75.6172 91.7494C75.0995 91.8319 74.6733 92.1996 74.515 92.6997L60.5554 136.948C60.4109 137.404 60.5142 137.903 60.827 138.267C61.1413 138.63 61.619 138.806 62.093 138.73L76.1405 136.491L66.6275 175.285C66.4656 175.948 66.8129 176.633 67.4441 176.894C67.6869 176.994 67.9432 177.02 68.1878 176.981C68.5799 176.918 68.9397 176.689 69.1571 176.329L104.599 117.45C104.876 116.989 104.86 116.409 104.559 115.962Z" fill="url(#paint5_linear)"/>
</g>
<g clip-path="url(#clip1)">
<path d="M181.559 81.9623C181.258 81.517 180.727 81.2853 180.195 81.3699L164.007 83.95L175.963 56.1788C176.163 55.7157 176.094 55.1803 175.784 54.7828C175.474 54.3839 174.972 54.1866 174.475 54.2658L152.617 57.7494C152.099 57.8319 151.673 58.1996 151.515 58.6997L137.555 102.948C137.411 103.404 137.514 103.903 137.827 104.267C138.141 104.63 138.619 104.806 139.093 104.73L153.14 102.491L143.628 141.285C143.466 141.948 143.813 142.633 144.444 142.894C144.687 142.994 144.943 143.02 145.188 142.981C145.58 142.918 145.94 142.689 146.157 142.329L181.599 83.4504C181.876 82.9888 181.86 82.4087 181.559 81.9623Z" fill="url(#paint6_linear)"/>
</g>
<defs>
<linearGradient id="paint0_linear" x1="123" y1="12.25" x2="123" y2="183.75" gradientUnits="userSpaceOnUse">
<stop stop-color="#6C6C6C"/>
<stop offset="1" stop-color="#6C6C6C" stop-opacity="0.65"/>
</linearGradient>
<linearGradient id="paint1_linear" x1="57.9577" y1="200.684" x2="13.7602" y2="273.905" gradientUnits="userSpaceOnUse">
<stop stop-color="#005F7D"/>
<stop offset="1" stop-color="#005F7D" stop-opacity="0.79"/>
</linearGradient>
<linearGradient id="paint2_linear" x1="110.958" y1="200.684" x2="66.7604" y2="273.905" gradientUnits="userSpaceOnUse">
<stop stop-color="#005F7D"/>
<stop offset="1" stop-color="#005F7D" stop-opacity="0.79"/>
</linearGradient>
<linearGradient id="paint3_linear" x1="158.958" y1="200.684" x2="114.76" y2="273.905" gradientUnits="userSpaceOnUse">
<stop stop-color="#005F7D"/>
<stop offset="1" stop-color="#005F7D" stop-opacity="0.79"/>
</linearGradient>
<linearGradient id="paint4_linear" x1="202.958" y1="200.684" x2="158.76" y2="273.905" gradientUnits="userSpaceOnUse">
<stop stop-color="#005F7D"/>
<stop offset="1" stop-color="#005F7D" stop-opacity="0.79"/>
</linearGradient>
<linearGradient id="paint5_linear" x1="76.9828" y1="91.5318" x2="90.0462" y2="173.497" gradientUnits="userSpaceOnUse">
<stop stop-color="#FAFF00"/>
<stop offset="1" stop-color="#A9A9A9"/>
</linearGradient>
<linearGradient id="paint6_linear" x1="153.983" y1="57.5318" x2="167.046" y2="139.497" gradientUnits="userSpaceOnUse">
<stop stop-color="#FAFF00"/>
<stop offset="1" stop-color="#A9A9A9"/>
</linearGradient>
<clipPath id="clip0">
<rect width="83" height="83" fill="white" transform="translate(36 98.0635) rotate(-9.05553)"/>
</clipPath>
<clipPath id="clip1">
<rect width="83" height="83" fill="white" transform="translate(113 64.0635) rotate(-9.05553)"/>
</clipPath>
</defs>
</svg>
