<svg width="199" height="207" viewBox="0 0 199 207" fill="none" xmlns="http://www.w3.org/2000/svg">
<g filter="url(#filter0_d)">
<path d="M160.36 54.3512C161.507 51.3627 162.15 48.0949 162.15 44.6875C162.15 29.8847 150.124 17.875 135.3 17.875C129.79 17.875 124.644 19.5508 120.393 22.3996C112.646 8.9934 98.1852 0 81.6 0C56.8757 0 36.85 19.9977 36.85 44.6875C36.85 45.4416 36.8779 46.1957 36.906 46.9498C21.2435 52.452 10 67.3661 10 84.9063C10 107.111 28.0399 125.126 50.275 125.126H153.2C172.974 125.126 189 109.122 189 89.375C189 72.0866 176.693 57.6469 160.36 54.3512Z" fill="url(#paint0_linear)"/>
</g>
<g filter="url(#filter1_d)">
<path d="M100.736 151.229C102.573 148.184 101.595 144.227 98.5507 142.39C95.5065 140.552 91.5492 141.53 89.7116 144.574L64.9728 185.559C63.1353 188.603 64.1135 192.56 67.1576 194.398C70.2018 196.235 74.1591 195.257 75.9966 192.213L100.736 151.229Z" fill="url(#paint1_linear)"/>
</g>
<g filter="url(#filter2_d)">
<path d="M68.0898 151.166C69.9273 148.122 68.9492 144.165 65.905 142.327C62.8608 140.49 58.9035 141.468 57.066 144.512L32.3271 185.496C30.4896 188.54 31.4678 192.498 34.5119 194.335C37.5561 196.173 41.5134 195.195 43.351 192.15L68.0898 151.166Z" fill="url(#paint2_linear)"/>
</g>
<g filter="url(#filter3_d)">
<path d="M134.829 151.229C136.667 148.185 135.689 144.227 132.645 142.39C129.6 140.552 125.643 141.53 123.806 144.574L99.0667 185.559C97.2292 188.603 98.2074 192.56 101.252 194.398C104.296 196.235 108.253 195.257 110.091 192.213L134.829 151.229Z" fill="url(#paint3_linear)"/>
</g>
<g filter="url(#filter4_d)">
<path d="M166.082 151.229C167.92 148.185 166.942 144.227 163.897 142.39C160.853 140.552 156.896 141.53 155.058 144.574L130.319 185.559C128.482 188.603 129.46 192.56 132.504 194.398C135.548 196.235 139.506 195.257 141.343 192.213L166.082 151.229Z" fill="url(#paint4_linear)"/>
</g>
<path d="M84.834 70.3606C84.6234 70.0496 84.2519 69.8877 83.8796 69.9468L72.553 71.7492L80.9185 52.3485C81.0584 52.0249 81.0102 51.6509 80.7933 51.3732C80.5764 51.0945 80.2251 50.9567 79.8774 51.012L64.5835 53.4457C64.2211 53.5033 63.923 53.7602 63.8124 54.1095L54.0447 85.0211C53.944 85.3397 54.016 85.6883 54.235 85.9426C54.4547 86.1961 54.7892 86.3191 55.1209 86.266L64.9494 84.7019L58.294 111.803C58.1806 112.266 58.4234 112.745 58.8649 112.927C59.0349 112.997 59.2141 113.015 59.3855 112.988C59.6598 112.944 59.9116 112.784 60.0635 112.532L84.862 71.4002C85.0558 71.0777 85.0446 70.6725 84.834 70.3606Z" fill="url(#paint5_linear)"/>
<path d="M135.834 51.3606C135.623 51.0496 135.252 50.8877 134.88 50.9468L123.553 52.7492L131.919 33.3485C132.058 33.0249 132.01 32.6509 131.793 32.3732C131.576 32.0945 131.225 31.9567 130.877 32.012L115.583 34.4457C115.221 34.5033 114.923 34.7602 114.812 35.1095L105.045 66.0211C104.944 66.3397 105.016 66.6883 105.235 66.9426C105.455 67.1961 105.789 67.3191 106.121 67.266L115.949 65.7019L109.294 92.8031C109.181 93.2663 109.423 93.7448 109.865 93.9271C110.035 93.997 110.214 94.0152 110.385 93.9879C110.66 93.9439 110.912 93.7839 111.063 93.5324L135.862 52.4002C136.056 52.0777 136.045 51.6725 135.834 51.3606Z" fill="url(#paint6_linear)"/>
<defs>
<filter id="filter0_d" x="0" y="0" width="199" height="145.126" filterUnits="userSpaceOnUse" color-interpolation-filters="sRGB">
<feFlood flood-opacity="0" result="BackgroundImageFix"/>
<feColorMatrix in="SourceAlpha" type="matrix" values="0 0 0 0 0 0 0 0 0 0 0 0 0 0 0 0 0 0 127 0"/>
<feOffset dy="10"/>
<feGaussianBlur stdDeviation="5"/>
<feColorMatrix type="matrix" values="0 0 0 0 0 0 0 0 0 0 0 0 0 0 0 0 0 0 0.4 0"/>
<feBlend mode="normal" in2="BackgroundImageFix" result="effect1_dropShadow"/>
<feBlend mode="normal" in="SourceGraphic" in2="effect1_dropShadow" result="shape"/>
</filter>
<filter id="filter1_d" x="60.0455" y="141.462" width="45.6174" height="62.8626" filterUnits="userSpaceOnUse" color-interpolation-filters="sRGB">
<feFlood flood-opacity="0" result="BackgroundImageFix"/>
<feColorMatrix in="SourceAlpha" type="matrix" values="0 0 0 0 0 0 0 0 0 0 0 0 0 0 0 0 0 0 127 0"/>
<feOffset dy="5"/>
<feGaussianBlur stdDeviation="2"/>
<feColorMatrix type="matrix" values="0 0 0 0 0 0 0 0 0 0 0 0 0 0 0 0 0 0 0.27 0"/>
<feBlend mode="normal" in2="BackgroundImageFix" result="effect1_dropShadow"/>
<feBlend mode="normal" in="SourceGraphic" in2="effect1_dropShadow" result="shape"/>
</filter>
<filter id="filter2_d" x="27.3998" y="141.4" width="45.6172" height="62.8626" filterUnits="userSpaceOnUse" color-interpolation-filters="sRGB">
<feFlood flood-opacity="0" result="BackgroundImageFix"/>
<feColorMatrix in="SourceAlpha" type="matrix" values="0 0 0 0 0 0 0 0 0 0 0 0 0 0 0 0 0 0 127 0"/>
<feOffset dy="5"/>
<feGaussianBlur stdDeviation="2"/>
<feColorMatrix type="matrix" values="0 0 0 0 0 0 0 0 0 0 0 0 0 0 0 0 0 0 0.27 0"/>
<feBlend mode="normal" in2="BackgroundImageFix" result="effect1_dropShadow"/>
<feBlend mode="normal" in="SourceGraphic" in2="effect1_dropShadow" result="shape"/>
</filter>
<filter id="filter3_d" x="94.1395" y="141.462" width="45.6172" height="62.8626" filterUnits="userSpaceOnUse" color-interpolation-filters="sRGB">
<feFlood flood-opacity="0" result="BackgroundImageFix"/>
<feColorMatrix in="SourceAlpha" type="matrix" values="0 0 0 0 0 0 0 0 0 0 0 0 0 0 0 0 0 0 127 0"/>
<feOffset dy="5"/>
<feGaussianBlur stdDeviation="2"/>
<feColorMatrix type="matrix" values="0 0 0 0 0 0 0 0 0 0 0 0 0 0 0 0 0 0 0.27 0"/>
<feBlend mode="normal" in2="BackgroundImageFix" result="effect1_dropShadow"/>
<feBlend mode="normal" in="SourceGraphic" in2="effect1_dropShadow" result="shape"/>
</filter>
<filter id="filter4_d" x="125.392" y="141.462" width="45.6176" height="62.8626" filterUnits="userSpaceOnUse" color-interpolation-filters="sRGB">
<feFlood flood-opacity="0" result="BackgroundImageFix"/>
<feColorMatrix in="SourceAlpha" type="matrix" values="0 0 0 0 0 0 0 0 0 0 0 0 0 0 0 0 0 0 127 0"/>
<feOffset dy="5"/>
<feGaussianBlur stdDeviation="2"/>
<feColorMatrix type="matrix" values="0 0 0 0 0 0 0 0 0 0 0 0 0 0 0 0 0 0 0.27 0"/>
<feBlend mode="normal" in2="BackgroundImageFix" result="effect1_dropShadow"/>
<feBlend mode="normal" in="SourceGraphic" in2="effect1_dropShadow" result="shape"/>
</filter>
<linearGradient id="paint0_linear" x1="99.5" y1="0" x2="99.5" y2="125.125" gradientUnits="userSpaceOnUse">
<stop stop-color="#6C6C6C"/>
<stop offset="1" stop-color="#8F8F8F"/>
</linearGradient>
<linearGradient id="paint1_linear" x1="98.5505" y1="142.39" x2="67.1575" y2="194.398" gradientUnits="userSpaceOnUse">
<stop stop-color="#0DA1D0"/>
<stop offset="1" stop-color="#007195"/>
</linearGradient>
<linearGradient id="paint2_linear" x1="65.9048" y1="142.327" x2="34.5118" y2="194.335" gradientUnits="userSpaceOnUse">
<stop stop-color="#0DA1D0"/>
<stop offset="1" stop-color="#007195"/>
</linearGradient>
<linearGradient id="paint3_linear" x1="132.644" y1="142.39" x2="101.251" y2="194.398" gradientUnits="userSpaceOnUse">
<stop stop-color="#0DA1D0"/>
<stop offset="1" stop-color="#007195"/>
</linearGradient>
<linearGradient id="paint4_linear" x1="163.897" y1="142.39" x2="132.504" y2="194.398" gradientUnits="userSpaceOnUse">
<stop stop-color="#0DA1D0"/>
<stop offset="1" stop-color="#007195"/>
</linearGradient>
<linearGradient id="paint5_linear" x1="65.5393" y1="53.2937" x2="74.6514" y2="110.558" gradientUnits="userSpaceOnUse">
<stop stop-color="#FAFF00"/>
<stop offset="1" stop-color="#A9A9A9"/>
</linearGradient>
<linearGradient id="paint6_linear" x1="116.539" y1="34.2937" x2="125.651" y2="91.5585" gradientUnits="userSpaceOnUse">
<stop stop-color="#FAFF00"/>
<stop offset="1" stop-color="#A9A9A9"/>
</linearGradient>
</defs>
</svg>
