<svg width="44" height="44" viewBox="0 0 44 44" fill="none" xmlns="http://www.w3.org/2000/svg">
<path d="M22 0C9.88634 0 0 9.88702 0 22C0 34.1137 9.88702 44 22 44C34.1137 44 44 34.1129 44 22C44 9.88634 34.113 0 22 0ZM22 41.4219C11.2907 41.4219 2.57812 32.7093 2.57812 22C2.57812 11.2907 11.2907 2.57812 22 2.57812C32.7093 2.57812 41.4219 11.2907 41.4219 22C41.4219 32.7093 32.7093 41.4219 22 41.4219ZM28.4453 10.3984C25.616 10.3984 23.4455 11.9888 22 14.3565C20.5548 11.9892 18.3844 10.3984 15.5547 10.3984C10.9783 10.3984 7.82031 14.3437 7.82031 18.9531C7.82031 24.5041 12.7724 28.4892 17.8054 32.9006C18.869 33.8328 19.9688 34.7968 21.1376 35.8487C21.3828 36.0694 21.6914 36.1797 22 36.1797C22.3086 36.1797 22.6172 36.0694 22.8624 35.8487C24.0312 34.7968 25.131 33.8328 26.1946 32.9006C31.6332 28.1337 36.1797 24.3402 36.1797 18.9531C36.1797 14.3349 33.0138 10.3984 28.4453 10.3984V10.3984ZM24.4953 30.9618C23.6896 31.6679 22.8635 32.3921 22 33.1607C21.1366 32.3921 20.3104 31.6679 19.5047 30.9618C13.8261 25.9845 10.3984 22.9802 10.3984 18.9531C10.3984 15.5459 12.6151 12.9766 15.5547 12.9766C18.3654 12.9766 20.1646 15.6946 20.7553 17.8234C20.9068 18.3861 21.4171 18.7773 22 18.7773C22.584 18.7773 23.0951 18.3847 23.2456 17.8204C23.2585 17.772 24.5819 12.9766 28.4453 12.9766C31.3849 12.9766 33.6016 15.5459 33.6016 18.9531C33.6016 22.9802 30.1739 25.9845 24.4953 30.9618Z" fill="url(#paint0_linear)"/>
<defs>
<linearGradient id="paint0_linear" x1="22" y1="44" x2="22" y2="0" gradientUnits="userSpaceOnUse">
<stop stop-color="#FD3A84"/>
<stop offset="1" stop-color="#FFA68D"/>
</linearGradient>
</defs>
</svg>
