<svg width="25" height="22" viewBox="0 0 25 22" fill="none" xmlns="http://www.w3.org/2000/svg">
<g clip-path="url(#clip0)">
<path d="M23.9376 18.8353L19.2117 14.5934C18.9984 14.402 18.7093 14.2956 18.4059 14.2956H17.6332C18.9415 12.7937 19.7189 10.9047 19.7189 8.84966C19.7189 3.96108 15.3058 0 9.85945 0C4.41305 0 0 3.96108 0 8.84966C0 13.7383 4.41305 17.6993 9.85945 17.6993C12.1489 17.6993 14.2535 17.0016 15.9268 15.8273V16.5208C15.9268 16.7931 16.0453 17.0526 16.2586 17.2441L20.9845 21.486C21.4301 21.8859 22.1506 21.8859 22.5914 21.486L23.9329 20.2819C24.3784 19.882 24.3784 19.2353 23.9376 18.8353ZM9.85945 14.2956C6.50818 14.2956 3.7921 11.862 3.7921 8.84966C3.7921 5.84163 6.50344 3.40372 9.85945 3.40372C13.2107 3.40372 15.9268 5.83737 15.9268 8.84966C15.9268 11.8577 13.2155 14.2956 9.85945 14.2956Z" fill="white"/>
</g>
<defs>
<clipPath id="clip0">
<rect width="24.2694" height="21.7838" fill="white"/>
</clipPath>
</defs>
</svg>
