<svg width="16" height="16" viewBox="0 0 16 16" fill="none" xmlns="http://www.w3.org/2000/svg">
<path d="M8 16C12.4183 16 16 12.4183 16 8C16 3.58172 12.4183 0 8 0C3.58172 0 0 3.58172 0 8C0 12.4183 3.58172 16 8 16Z" fill="url(#paint0_linear)"/>
<path d="M8.55974 9.36071C10.1004 9.36071 11.3494 8.11175 11.3494 6.57107C11.3494 5.03043 10.1004 3.78146 8.55974 3.78146C7.0191 3.78146 5.77014 5.03043 5.77014 6.57107C5.77014 8.11175 7.0191 9.36071 8.55974 9.36071Z" fill="#FFD347"/>
<path d="M8.55984 2.73508C8.47752 2.73508 8.4108 2.66837 8.4108 2.58605V1.78908C8.4108 1.70675 8.47752 1.64005 8.55984 1.64005C8.64212 1.64005 8.70884 1.70675 8.70884 1.78908V2.58607C8.70884 2.66837 8.64212 2.73508 8.55984 2.73508Z" fill="#FFD347"/>
<path d="M6.56742 3.26904C6.51594 3.26904 6.46586 3.24233 6.43822 3.19452L6.03978 2.50432C5.99862 2.43305 6.02302 2.3419 6.0943 2.30074C6.16562 2.25963 6.25674 2.28398 6.2979 2.35529L6.69638 3.04549C6.7375 3.11676 6.7131 3.2079 6.64182 3.24907C6.61834 3.26261 6.5927 3.26904 6.56742 3.26904Z" fill="#FFD347"/>
<path d="M5.10847 4.72764C5.08323 4.72764 5.05759 4.7212 5.03411 4.70764L4.34391 4.30916C4.27263 4.26804 4.24823 4.17688 4.28935 4.1056C4.33051 4.03432 4.42167 4.00992 4.49295 4.05104L5.18315 4.44952C5.25443 4.49064 5.27883 4.5818 5.23771 4.65308C5.21007 4.70092 5.15999 4.72764 5.10847 4.72764Z" fill="#FFD347"/>
<path d="M4.57472 6.72022H3.77775C3.69545 6.72022 3.62872 6.65354 3.62872 6.57122C3.62872 6.48886 3.69545 6.42218 3.77775 6.42218H4.57476C4.65704 6.42218 4.72376 6.48886 4.72376 6.57122C4.72376 6.65354 4.65704 6.72022 4.57472 6.72022Z" fill="#FFD347"/>
<path d="M4.41855 9.11127C4.36703 9.11127 4.31695 9.08459 4.28935 9.03675C4.24823 8.96551 4.27263 8.87435 4.34391 8.83319L5.03411 8.43472C5.10539 8.3936 5.19655 8.41796 5.23771 8.48928C5.27883 8.56052 5.25443 8.65167 5.18315 8.69283L4.49295 9.09131C4.46947 9.10487 4.44383 9.11127 4.41855 9.11127Z" fill="#FFD347"/>
<path d="M12.7011 9.11121C12.6758 9.11121 12.6502 9.10481 12.6267 9.09125L11.9365 8.69277C11.8652 8.65161 11.8408 8.56046 11.882 8.48918C11.9231 8.4179 12.0142 8.3935 12.0856 8.43462L12.7758 8.83309C12.847 8.87425 12.8714 8.96541 12.8303 9.03669C12.8027 9.08449 12.7526 9.11121 12.7011 9.11121Z" fill="#FFD347"/>
<path d="M13.3419 6.72022H12.5449C12.4626 6.72022 12.3959 6.65354 12.3959 6.57122C12.3959 6.48886 12.4626 6.42218 12.5449 6.42218H13.3419C13.4242 6.42218 13.4909 6.48886 13.4909 6.57122C13.4909 6.65354 13.4242 6.72022 13.3419 6.72022Z" fill="#FFD347"/>
<path d="M12.0112 4.72762C11.9596 4.72762 11.9096 4.7009 11.882 4.6531C11.8408 4.58182 11.8652 4.49066 11.9365 4.4495L12.6267 4.05102C12.698 4.00994 12.7891 4.0343 12.8303 4.10558C12.8714 4.17686 12.847 4.26802 12.7758 4.30918L12.0856 4.70766C12.0621 4.72118 12.0364 4.72762 12.0112 4.72762Z" fill="#FFD347"/>
<path d="M10.5522 3.26898C10.527 3.26898 10.5013 3.26254 10.4779 3.24898C10.4066 3.20784 10.3822 3.11669 10.4233 3.0454L10.8218 2.3552C10.8629 2.28391 10.9541 2.25953 11.0253 2.30065C11.0966 2.34179 11.1211 2.43294 11.0799 2.50423L10.6814 3.19443C10.6538 3.24226 10.6037 3.26898 10.5522 3.26898Z" fill="#FFD347"/>
<path d="M8.55984 3.78165C8.45884 3.78165 8.35916 3.78716 8.26096 3.7976C9.661 3.94674 10.7516 5.13153 10.7516 6.57117C10.7516 8.01081 9.661 9.19561 8.26096 9.34477C8.35916 9.35525 8.45884 9.36073 8.55984 9.36073C10.1004 9.36073 11.3494 8.11181 11.3494 6.57117C11.3494 5.03053 10.1005 3.78165 8.55984 3.78165Z" fill="#FFBE31"/>
<path d="M5.23151 12.1028C5.23151 12.3905 4.99831 12.6237 4.71063 12.6237C4.42299 12.6237 4.18979 12.3905 4.18979 12.1028C4.18979 11.8331 4.46223 11.4669 4.61303 11.2848C4.66379 11.2235 4.75751 11.2235 4.80823 11.2848C4.95907 11.4669 5.23151 11.8331 5.23151 12.1028Z" fill="#8AC9FE"/>
<path d="M7.49768 12.1028C7.49768 12.3905 7.26448 12.6237 6.97684 12.6237C6.68916 12.6237 6.45596 12.3905 6.45596 12.1028C6.45596 11.8331 6.72844 11.4669 6.87924 11.2848C6.92996 11.2235 7.02368 11.2235 7.07444 11.2848C7.22524 11.4669 7.49768 11.8331 7.49768 12.1028Z" fill="#8AC9FE"/>
<path d="M9.76385 12.1028C9.76385 12.3905 9.53066 12.6237 9.24302 12.6237C8.95534 12.6237 8.72214 12.3905 8.72214 12.1028C8.72214 11.8331 8.99462 11.4669 9.14542 11.2848C9.19614 11.2235 9.28986 11.2235 9.34058 11.2848C9.49138 11.4669 9.76385 11.8331 9.76385 12.1028Z" fill="#8AC9FE"/>
<path d="M6.36463 13.8388C6.36463 14.1264 6.13143 14.3596 5.84375 14.3596C5.55611 14.3596 5.32291 14.1264 5.32291 13.8388C5.32291 13.569 5.59535 13.2028 5.74615 13.0208C5.79691 12.9595 5.89063 12.9595 5.94135 13.0208C6.09219 13.2028 6.36463 13.569 6.36463 13.8388Z" fill="#007BE1"/>
<path d="M8.63077 13.8388C8.63077 14.1264 8.39757 14.3596 8.10993 14.3596C7.82225 14.3596 7.58905 14.1264 7.58905 13.8388C7.58905 13.569 7.86153 13.2028 8.01233 13.0208C8.06305 12.9595 8.15677 12.9595 8.20753 13.0208C8.35833 13.2028 8.63077 13.569 8.63077 13.8388Z" fill="#007BE1"/>
<path d="M4.88633 12.5933C4.83137 12.613 4.77233 12.6237 4.71069 12.6237C4.42297 12.6237 4.18985 12.3906 4.18985 12.1029C4.18985 11.8332 4.46229 11.467 4.61301 11.2848C4.66377 11.2235 4.75757 11.2235 4.80833 11.2848C4.83189 11.3133 4.85841 11.3463 4.88633 11.3827C4.73509 11.5791 4.54117 11.8754 4.54117 12.1029C4.54117 12.3289 4.68505 12.5213 4.88633 12.5933Z" fill="#007BE1"/>
<path d="M7.15247 12.5933C7.09751 12.613 7.03847 12.6237 6.97683 12.6237C6.68911 12.6237 6.45599 12.3906 6.45599 12.1029C6.45599 11.8332 6.72843 11.467 6.87915 11.2848C6.92991 11.2235 7.02371 11.2235 7.07447 11.2848C7.09803 11.3133 7.12455 11.3463 7.15247 11.3827C7.00123 11.5791 6.80731 11.8754 6.80731 12.1029C6.80731 12.3289 6.95119 12.5213 7.15247 12.5933Z" fill="#007BE1"/>
<path d="M9.41865 12.5933C9.36369 12.613 9.30465 12.6237 9.24301 12.6237C8.95525 12.6237 8.72217 12.3906 8.72217 12.1029C8.72217 11.8332 8.99461 11.467 9.14533 11.2848C9.19609 11.2235 9.28989 11.2235 9.34065 11.2848C9.36421 11.3133 9.39073 11.3463 9.41865 11.3827C9.26741 11.5791 9.07349 11.8754 9.07349 12.1029C9.07349 12.3289 9.21733 12.5213 9.41865 12.5933Z" fill="#007BE1"/>
<path d="M6.01933 14.3293C5.96453 14.3489 5.90533 14.3597 5.84369 14.3597C5.55613 14.3597 5.32285 14.1264 5.32285 13.8387C5.32285 13.569 5.59529 13.2028 5.74617 13.0208C5.79693 12.9595 5.89057 12.9595 5.94133 13.0208C5.96489 13.0493 5.99141 13.0821 6.01949 13.1183C5.86825 13.3147 5.67417 13.611 5.67417 13.8387C5.67417 14.0647 5.81821 14.2573 6.01933 14.3293Z" fill="#60B7FF"/>
<path d="M8.28566 14.3293C8.2307 14.3489 8.17166 14.3597 8.11002 14.3597C7.8223 14.3597 7.58902 14.1264 7.58902 13.8387C7.58902 13.569 7.86146 13.2028 8.01234 13.0208C8.0631 12.9595 8.15674 12.9595 8.2075 13.0208C8.23106 13.0493 8.25758 13.0821 8.28566 13.1183C8.13442 13.3147 7.94034 13.611 7.94034 13.8387C7.94034 14.0647 8.08438 14.2573 8.28566 14.3293Z" fill="#60B7FF"/>
<path d="M10.1027 7.74075H9.48597C9.39169 6.41391 8.28553 5.36679 6.93469 5.36679C5.87905 5.36679 4.97285 6.00631 4.58217 6.91899C4.48233 6.90179 4.37973 6.89271 4.27497 6.89271C3.28364 6.89271 2.48001 7.69635 2.48001 8.68767C2.48001 9.67903 3.28364 10.4827 4.27497 10.4827H10.1027C10.8599 10.4827 11.4737 9.86887 11.4737 9.11167C11.4737 8.35455 10.8599 7.74075 10.1027 7.74075Z" fill="#00A0C4"/>
<path d="M7.38725 5.40675C6.53005 5.55947 5.82053 6.13963 5.48701 6.91903C5.38713 6.90183 5.28453 6.89279 5.17977 6.89279C4.18849 6.89279 3.38482 7.69643 3.38482 8.68771C3.38482 9.67903 4.18845 10.4827 5.17977 10.4827H4.27497C3.28364 10.4827 2.48001 9.67903 2.48001 8.68775C2.48001 7.69643 3.28364 6.89279 4.27493 6.89279C4.37973 6.89279 4.48233 6.90183 4.58221 6.91903C4.97289 6.00627 5.87913 5.36679 6.93469 5.36679C7.08905 5.36679 7.24029 5.38051 7.38725 5.40675Z" fill="#0070F4"/>
<path d="M4.65601 9.38211L4.37601 8.10011C4.37201 8.07879 4.37601 8.06011 4.38801 8.04411C4.40133 8.02811 4.41869 8.02011 4.44001 8.02011C4.46401 8.02011 4.48469 8.02811 4.50201 8.04411C4.52069 8.05879 4.53269 8.07743 4.53801 8.10011L4.77601 9.30611C4.77601 9.30743 4.77669 9.30811 4.77801 9.30811C4.77933 9.30811 4.78001 9.30743 4.78001 9.30611L5.02601 8.12211C5.03133 8.09279 5.04533 8.06879 5.06801 8.05011C5.09201 8.03011 5.11869 8.02011 5.14801 8.02011C5.17869 8.02011 5.20601 8.03011 5.23001 8.05011C5.25401 8.06879 5.26933 8.09279 5.27601 8.12211L5.52201 9.30611C5.52201 9.30743 5.52269 9.30811 5.52401 9.30811C5.52533 9.30811 5.52601 9.30743 5.52601 9.30611L5.76401 8.09811C5.76801 8.07543 5.77869 8.05679 5.79601 8.04211C5.81333 8.02743 5.83401 8.02011 5.85801 8.02011C5.87801 8.02011 5.89469 8.02811 5.90801 8.04411C5.92133 8.06011 5.92601 8.07811 5.92201 8.09811L5.64001 9.38211C5.63333 9.41143 5.61869 9.43543 5.59601 9.45411C5.57333 9.47143 5.54733 9.48011 5.51801 9.48011C5.48869 9.48011 5.46201 9.47143 5.43801 9.45411C5.41533 9.43543 5.40133 9.41143 5.39601 9.38211L5.15001 8.19411C5.15001 8.19279 5.14933 8.19211 5.14801 8.19211C5.14669 8.19211 5.14601 8.19279 5.14601 8.19411L4.90001 9.38211C4.89333 9.41143 4.87869 9.43543 4.85601 9.45411C4.83333 9.47143 4.80733 9.48011 4.77801 9.48011C4.74869 9.48011 4.72201 9.47143 4.69801 9.45411C4.67533 9.43543 4.66133 9.41143 4.65601 9.38211ZM6.49037 8.16611L6.24637 8.91011C6.24505 8.91411 6.24569 8.91811 6.24837 8.92211C6.25105 8.92479 6.25437 8.92611 6.25837 8.92611H6.72837C6.73237 8.92611 6.73505 8.92479 6.73637 8.92211C6.73905 8.91811 6.74037 8.91411 6.74037 8.91011L6.49637 8.16611C6.49637 8.16479 6.49569 8.16411 6.49437 8.16411C6.49169 8.16411 6.49037 8.16479 6.49037 8.16611ZM5.97637 9.48011C5.95637 9.48011 5.94037 9.47211 5.92837 9.45611C5.91637 9.43879 5.91369 9.42079 5.92037 9.40211L6.37637 8.10411C6.38569 8.07879 6.40105 8.05879 6.42237 8.04411C6.44505 8.02811 6.46969 8.02011 6.49637 8.02011C6.52305 8.02011 6.54705 8.02811 6.56837 8.04411C6.59105 8.05879 6.60705 8.07879 6.61637 8.10411L7.07037 9.40011C7.07705 9.42011 7.07437 9.43879 7.06237 9.45611C7.05037 9.47211 7.03437 9.48011 7.01437 9.48011C6.98769 9.48011 6.96369 9.47279 6.94237 9.45811C6.92237 9.44211 6.90837 9.42211 6.90037 9.39811L6.79437 9.07011C6.79037 9.05943 6.78237 9.05411 6.77037 9.05411H6.21637C6.20569 9.05411 6.19837 9.05943 6.19437 9.07011L6.08437 9.40211C6.07637 9.42611 6.06237 9.44543 6.04237 9.46011C6.02369 9.47343 6.00169 9.48011 5.97637 9.48011ZM7.45249 9.39611L6.99849 8.10011C6.99181 8.08011 6.99381 8.06211 7.00449 8.04611C7.01649 8.02879 7.03317 8.02011 7.05449 8.02011C7.07981 8.02011 7.10317 8.02811 7.12449 8.04411C7.14581 8.05879 7.16049 8.07811 7.16849 8.10211L7.57249 9.32011C7.57249 9.32143 7.57317 9.32211 7.57449 9.32211C7.57717 9.32211 7.57849 9.32143 7.57849 9.32011L7.98249 8.09811C7.99049 8.07411 8.00449 8.05543 8.02449 8.04211C8.04449 8.02743 8.06717 8.02011 8.09249 8.02011C8.11249 8.02011 8.12849 8.02879 8.14049 8.04611C8.15249 8.06211 8.15517 8.07943 8.14849 8.09811L7.69249 9.39611C7.68317 9.42143 7.66717 9.44211 7.64449 9.45811C7.62317 9.47279 7.59917 9.48011 7.57249 9.48011C7.54581 9.48011 7.52117 9.47279 7.49849 9.45811C7.47717 9.44211 7.46181 9.42143 7.45249 9.39611ZM8.48785 9.48011C8.45717 9.48011 8.43049 9.46879 8.40785 9.44611C8.38517 9.42343 8.37385 9.39679 8.37385 9.36611V8.13411C8.37385 8.10343 8.38517 8.07679 8.40785 8.05411C8.43049 8.03143 8.45717 8.02011 8.48785 8.02011H9.15985C9.17849 8.02011 9.19449 8.02679 9.20785 8.04011C9.22117 8.05343 9.22785 8.06879 9.22785 8.08611C9.22785 8.10343 9.22117 8.11943 9.20785 8.13411C9.19449 8.14743 9.17849 8.15411 9.15985 8.15411H8.55185C8.53985 8.15411 8.53385 8.15943 8.53385 8.17011V8.61411C8.53385 8.62479 8.53985 8.63011 8.55185 8.63011H9.12385C9.14249 8.63011 9.15785 8.63679 9.16985 8.65011C9.18185 8.66211 9.18785 8.67679 9.18785 8.69411C9.18785 8.71143 9.18185 8.72679 9.16985 8.74011C9.15785 8.75211 9.14249 8.75811 9.12385 8.75811H8.55185C8.53985 8.75811 8.53385 8.76411 8.53385 8.77611V9.33011C8.53385 9.34079 8.53985 9.34611 8.55185 9.34611H9.15985C9.17849 9.34611 9.19449 9.35343 9.20785 9.36811C9.22117 9.38143 9.22785 9.39679 9.22785 9.41411C9.22785 9.43143 9.22117 9.44679 9.20785 9.46011C9.19449 9.47343 9.17849 9.48011 9.15985 9.48011H8.48785Z" fill="#0E69AB"/>
<path d="M4.65601 9.38208L4.69537 9.37492L4.69525 9.37424L4.69509 9.37356L4.65601 9.38208ZM4.37601 8.10007L4.33669 8.10743L4.33681 8.10803L4.33693 8.10859L4.37601 8.10007ZM4.38801 8.04407L4.35729 8.01847L4.35661 8.01923L4.35601 8.02007L4.38801 8.04407ZM4.50201 8.04407L4.47489 8.07347L4.47605 8.07455L4.47729 8.07551L4.50201 8.04407ZM4.53801 8.10007L4.57725 8.09231L4.57713 8.09163L4.57693 8.09091L4.53801 8.10007ZM4.77601 9.30608H4.81601V9.30216L4.81525 9.29832L4.77601 9.30608ZM4.78001 9.30608L4.74085 9.29796L4.74001 9.30196V9.30608H4.78001ZM5.02601 8.12207L5.06517 8.13019L5.06529 8.12971L5.06537 8.12923L5.02601 8.12207ZM5.06801 8.05007L5.09345 8.08095L5.09361 8.08079L5.06801 8.05007ZM5.23001 8.05007L5.20441 8.08079L5.20493 8.08123L5.20545 8.08163L5.23001 8.05007ZM5.27601 8.12207L5.31517 8.11395L5.31509 8.11355L5.31501 8.11319L5.27601 8.12207ZM5.52201 9.30608H5.56201V9.30196L5.56117 9.29796L5.52201 9.30608ZM5.52601 9.30608L5.48677 9.29836L5.48601 9.30216V9.30608H5.52601ZM5.76401 8.09807L5.80325 8.10579L5.80333 8.10543L5.80341 8.10503L5.76401 8.09807ZM5.79601 8.04207L5.77017 8.01155L5.79601 8.04207ZM5.90801 8.04407L5.87729 8.06967L5.90801 8.04407ZM5.92201 8.09807L5.96109 8.10667L5.96117 8.10627L5.96125 8.10591L5.92201 8.09807ZM5.64001 9.38208L5.67901 9.39096L5.67909 9.39068L5.64001 9.38208ZM5.59601 9.45408L5.62029 9.48584L5.62089 9.4854L5.62145 9.48496L5.59601 9.45408ZM5.43801 9.45408L5.41257 9.48496L5.41357 9.48576L5.41461 9.48652L5.43801 9.45408ZM5.39601 9.38208L5.43537 9.37492L5.43529 9.37444L5.43517 9.37396L5.39601 9.38208ZM5.15001 8.19407H5.11001V8.19815L5.11085 8.20219L5.15001 8.19407ZM5.14601 8.19407L5.18517 8.20219L5.18601 8.19815V8.19407H5.14601ZM4.90001 9.38208L4.93901 9.39096L4.93909 9.39056L4.93917 9.3902L4.90001 9.38208ZM4.85601 9.45408L4.88029 9.48584L4.88089 9.4854L4.88145 9.48496L4.85601 9.45408ZM4.69801 9.45408L4.67257 9.48496L4.67357 9.48576L4.67461 9.48652L4.69801 9.45408ZM4.69509 9.37356L4.41509 8.09155L4.33693 8.10859L4.61693 9.3906L4.69509 9.37356ZM4.41533 8.09271C4.41321 8.08135 4.41537 8.07427 4.42001 8.06807L4.35601 8.02007C4.33665 8.04587 4.33081 8.07615 4.33669 8.10743L4.41533 8.09271ZM4.41873 8.06967C4.42425 8.06303 4.43021 8.06007 4.44001 8.06007V7.98007C4.40713 7.98007 4.37841 7.99311 4.35729 8.01847L4.41873 8.06967ZM4.44001 8.06007C4.45413 8.06007 4.46509 8.06443 4.47489 8.07347L4.52913 8.01467C4.50429 7.99171 4.47389 7.98007 4.44001 7.98007V8.06007ZM4.47729 8.07551C4.48897 8.08471 4.49585 8.09559 4.49909 8.10923L4.57693 8.09091C4.56949 8.05923 4.55237 8.03275 4.52673 8.01263L4.47729 8.07551ZM4.49877 8.10783L4.73677 9.31384L4.81525 9.29832L4.57725 8.09231L4.49877 8.10783ZM4.73601 9.30608C4.73601 9.31292 4.73773 9.3254 4.74821 9.33588C4.75869 9.34636 4.77117 9.34808 4.77801 9.34808V9.26808C4.78349 9.26808 4.79497 9.26948 4.80481 9.27928C4.81461 9.28912 4.81601 9.3006 4.81601 9.30608H4.73601ZM4.77801 9.34808C4.78485 9.34808 4.79733 9.34636 4.80781 9.33588C4.81829 9.3254 4.82001 9.31292 4.82001 9.30608H4.74001C4.74001 9.3006 4.74141 9.28912 4.75121 9.27928C4.76105 9.26948 4.77253 9.26808 4.77801 9.26808V9.34808ZM4.81917 9.3142L5.06517 8.13019L4.98685 8.11395L4.74085 9.29796L4.81917 9.3142ZM5.06537 8.12923C5.06905 8.10903 5.07821 8.09351 5.09345 8.08095L5.04257 8.01919C5.01249 8.04399 4.99365 8.07643 4.98665 8.11491L5.06537 8.12923ZM5.09361 8.08079C5.11093 8.06635 5.12869 8.06007 5.14801 8.06007V7.98007C5.10869 7.98007 5.07309 7.99379 5.04241 8.01935L5.09361 8.08079ZM5.14801 8.06007C5.16913 8.06007 5.18745 8.06667 5.20441 8.08079L5.25561 8.01935C5.22457 7.99347 5.18821 7.98007 5.14801 7.98007V8.06007ZM5.20545 8.08163C5.22225 8.09471 5.23241 8.11071 5.23701 8.13095L5.31501 8.11319C5.30629 8.07475 5.28577 8.04275 5.25457 8.01851L5.20545 8.08163ZM5.23685 8.13019L5.48285 9.3142L5.56117 9.29796L5.31517 8.11395L5.23685 8.13019ZM5.48201 9.30608C5.48201 9.31292 5.48373 9.3254 5.49421 9.33588C5.50469 9.34636 5.51717 9.34808 5.52401 9.34808V9.26808C5.52949 9.26808 5.54097 9.26948 5.55081 9.27928C5.56061 9.28912 5.56201 9.3006 5.56201 9.30608H5.48201ZM5.52401 9.34808C5.53085 9.34808 5.54333 9.34636 5.55381 9.33588C5.56429 9.3254 5.56601 9.31292 5.56601 9.30608H5.48601C5.48601 9.3006 5.48741 9.28912 5.49721 9.27928C5.50705 9.26948 5.51853 9.26808 5.52401 9.26808V9.34808ZM5.56525 9.3138L5.80325 8.10579L5.72477 8.09035L5.48677 9.29836L5.56525 9.3138ZM5.80341 8.10503C5.80581 8.09143 5.81177 8.08115 5.82185 8.07259L5.77017 8.01155C5.74561 8.03231 5.73021 8.05939 5.72461 8.09111L5.80341 8.10503ZM5.82185 8.07259C5.83153 8.06443 5.84289 8.06007 5.85801 8.06007V7.98007C5.82513 7.98007 5.79517 7.99039 5.77017 8.01155L5.82185 8.07259ZM5.85801 8.06007C5.86557 8.06007 5.87117 8.06235 5.87729 8.06967L5.93873 8.01847C5.91817 7.99379 5.89045 7.98007 5.85801 7.98007V8.06007ZM5.87729 8.06967C5.88305 8.07663 5.88437 8.08239 5.88277 8.09023L5.96125 8.10591C5.96765 8.07375 5.95961 8.04351 5.93873 8.01847L5.87729 8.06967ZM5.88293 8.08947L5.60093 9.37348L5.67909 9.39068L5.96109 8.10667L5.88293 8.08947ZM5.60101 9.3732C5.59625 9.39412 5.58625 9.41032 5.57057 9.4232L5.62145 9.48496C5.65113 9.46052 5.67045 9.42868 5.67901 9.39096L5.60101 9.3732ZM5.57173 9.42232C5.55621 9.43416 5.53881 9.44008 5.51801 9.44008V9.52008C5.55585 9.52008 5.59045 9.50868 5.62029 9.48584L5.57173 9.42232ZM5.51801 9.44008C5.49717 9.44008 5.47869 9.43412 5.46141 9.42164L5.41461 9.48652C5.44533 9.50872 5.48017 9.52008 5.51801 9.52008V9.44008ZM5.46345 9.4232C5.44821 9.41064 5.43905 9.39512 5.43537 9.37492L5.35665 9.38924C5.36365 9.42772 5.38249 9.46016 5.41257 9.48496L5.46345 9.4232ZM5.43517 9.37396L5.18917 8.18595L5.11085 8.20219L5.35685 9.3902L5.43517 9.37396ZM5.19001 8.19407C5.19001 8.18723 5.18829 8.17475 5.17781 8.16427C5.16733 8.15379 5.15485 8.15207 5.14801 8.15207V8.23207C5.14253 8.23207 5.13105 8.23067 5.12121 8.22087C5.11141 8.21103 5.11001 8.19955 5.11001 8.19407H5.19001ZM5.14801 8.15207C5.14117 8.15207 5.12869 8.15379 5.11821 8.16427C5.10773 8.17475 5.10601 8.18723 5.10601 8.19407H5.18601C5.18601 8.19955 5.18461 8.21103 5.17481 8.22087C5.16497 8.23067 5.15349 8.23207 5.14801 8.23207V8.15207ZM5.10685 8.18595L4.86085 9.37396L4.93917 9.3902L5.18517 8.20219L5.10685 8.18595ZM4.86101 9.3732C4.85625 9.39412 4.84625 9.41032 4.83057 9.4232L4.88145 9.48496C4.91113 9.46052 4.93045 9.42868 4.93901 9.39096L4.86101 9.3732ZM4.83173 9.42232C4.81621 9.43416 4.79881 9.44008 4.77801 9.44008V9.52008C4.81585 9.52008 4.85045 9.50868 4.88029 9.48584L4.83173 9.42232ZM4.77801 9.44008C4.75717 9.44008 4.73869 9.43412 4.72141 9.42164L4.67461 9.48652C4.70533 9.50872 4.74017 9.52008 4.77801 9.52008V9.44008ZM4.72345 9.4232C4.70821 9.41064 4.69905 9.39512 4.69537 9.37492L4.61665 9.38924C4.62365 9.42772 4.64249 9.46016 4.67257 9.48496L4.72345 9.4232ZM6.49037 8.16607L6.52837 8.17855L6.53037 8.17247V8.16607H6.49037ZM6.24637 8.91007L6.28433 8.92271L6.28437 8.92255L6.24637 8.91007ZM6.24837 8.92207L6.21509 8.94427L6.21729 8.94755L6.22009 8.95035L6.24837 8.92207ZM6.73637 8.92207L6.70309 8.89987L6.70169 8.90195L6.70061 8.90419L6.73637 8.92207ZM6.74037 8.91007H6.78037V8.90367L6.77837 8.89759L6.74037 8.91007ZM6.49637 8.16607H6.45637V8.17247L6.45837 8.17855L6.49637 8.16607ZM5.92837 9.45608L5.89549 9.47884L5.89593 9.47948L5.89637 9.48008L5.92837 9.45608ZM5.92037 9.40208L5.95805 9.41552L5.95809 9.41532L5.92037 9.40208ZM6.37637 8.10407L6.33885 8.09023L6.33873 8.09051L6.33865 8.09083L6.37637 8.10407ZM6.42237 8.04407L6.44505 8.07703L6.44545 8.07675L6.42237 8.04407ZM6.56837 8.04407L6.54437 8.07607L6.54549 8.07691L6.54665 8.07767L6.56837 8.04407ZM6.61637 8.10407L6.65413 8.09083L6.65401 8.09055L6.65389 8.09023L6.61637 8.10407ZM7.07037 9.40008L7.10833 9.38744L7.10821 9.38716L7.10813 9.38684L7.07037 9.40008ZM7.06237 9.45608L7.09437 9.48008L7.09481 9.47948L7.09525 9.47884L7.06237 9.45608ZM6.94237 9.45808L6.91737 9.48932L6.91853 9.49024L6.91969 9.49104L6.94237 9.45808ZM6.90037 9.39808L6.86229 9.4104L6.86241 9.41072L6.90037 9.39808ZM6.79437 9.07008L6.83245 9.05776L6.83213 9.05692L6.83181 9.05604L6.79437 9.07008ZM6.19437 9.07008L6.15693 9.05604L6.15665 9.05676L6.15641 9.05747L6.19437 9.07008ZM6.08437 9.40208L6.12233 9.41472V9.41468L6.08437 9.40208ZM6.04237 9.46008L6.06561 9.49264L6.06601 9.49232L6.04237 9.46008ZM6.45237 8.15359L6.20837 8.89759L6.28437 8.92255L6.52837 8.17855L6.45237 8.15359ZM6.20841 8.89743C6.20261 8.91487 6.20665 8.93163 6.21509 8.94427L6.28165 8.89987C6.28289 8.90171 6.28457 8.90499 6.28533 8.90951C6.28609 8.91419 6.28561 8.91879 6.28433 8.92271L6.20841 8.89743ZM6.22009 8.95035C6.23073 8.96103 6.24449 8.96607 6.25837 8.96607V8.88607C6.26089 8.88607 6.26417 8.88651 6.26773 8.88795C6.27133 8.88939 6.27437 8.89147 6.27665 8.89379L6.22009 8.95035ZM6.25837 8.96607H6.72837V8.88607H6.25837V8.96607ZM6.72837 8.96607C6.74149 8.96607 6.76169 8.96083 6.77213 8.93995L6.70061 8.90419C6.70381 8.89779 6.70909 8.89251 6.71549 8.88931C6.72125 8.88639 6.72617 8.88607 6.72837 8.88607V8.96607ZM6.76965 8.94427C6.77581 8.93503 6.78037 8.92343 6.78037 8.91007H6.70037C6.70037 8.90471 6.70229 8.90111 6.70309 8.89987L6.76965 8.94427ZM6.77837 8.89759L6.53437 8.15359L6.45837 8.17855L6.70237 8.92255L6.77837 8.89759ZM6.53637 8.16607C6.53637 8.15923 6.53465 8.14675 6.52417 8.13627C6.51369 8.12579 6.50121 8.12407 6.49437 8.12407V8.20407C6.48885 8.20407 6.47741 8.20267 6.46757 8.19287C6.45777 8.18303 6.45637 8.17155 6.45637 8.16607H6.53637ZM6.49437 8.12407C6.49101 8.12407 6.48249 8.12427 6.47349 8.12879C6.46841 8.13135 6.46217 8.13571 6.45733 8.14299C6.45233 8.15055 6.45037 8.15875 6.45037 8.16607H6.53037C6.53037 8.17275 6.52857 8.18035 6.52389 8.18739C6.51937 8.19415 6.51369 8.19815 6.50925 8.20035C6.50157 8.20419 6.49509 8.20407 6.49437 8.20407V8.12407ZM5.97637 9.44008C5.96897 9.44008 5.96481 9.438 5.96037 9.43208L5.89637 9.48008C5.91593 9.50616 5.94377 9.52008 5.97637 9.52008V9.44008ZM5.96125 9.43332C5.95605 9.4258 5.95601 9.4212 5.95805 9.41552L5.88269 9.38864C5.87137 9.42032 5.87669 9.45172 5.89549 9.47884L5.96125 9.43332ZM5.95809 9.41532L6.41409 8.11731L6.33865 8.09083L5.88265 9.38884L5.95809 9.41532ZM6.41389 8.11791C6.42049 8.09999 6.43081 8.08679 6.44505 8.07703L6.39969 8.01111C6.37125 8.03067 6.35089 8.05751 6.33885 8.09023L6.41389 8.11791ZM6.44545 8.07675C6.46165 8.06531 6.47833 8.06007 6.49637 8.06007V7.98007C6.46109 7.98007 6.42841 7.99083 6.39929 8.01139L6.44545 8.07675ZM6.49637 8.06007C6.51437 8.06007 6.52997 8.06527 6.54437 8.07607L6.59237 8.01207C6.56413 7.99087 6.53169 7.98007 6.49637 7.98007V8.06007ZM6.54665 8.07767C6.56205 8.08763 6.57249 8.10067 6.57885 8.11791L6.65389 8.09023C6.64157 8.05679 6.62005 8.02987 6.59009 8.01047L6.54665 8.07767ZM6.57861 8.11731L7.03261 9.41332L7.10813 9.38684L6.65413 8.09083L6.57861 8.11731ZM7.03241 9.41272C7.03509 9.4208 7.03433 9.42632 7.02949 9.43332L7.09525 9.47884C7.11441 9.45116 7.11897 9.41936 7.10833 9.38744L7.03241 9.41272ZM7.03037 9.43208C7.02593 9.438 7.02177 9.44008 7.01437 9.44008V9.52008C7.04697 9.52008 7.07481 9.50616 7.09437 9.48008L7.03037 9.43208ZM7.01437 9.44008C6.99553 9.44008 6.97949 9.43504 6.96505 9.42512L6.91969 9.49104C6.94793 9.51044 6.97985 9.52008 7.01437 9.52008V9.44008ZM6.96737 9.42684C6.95329 9.4156 6.94385 9.40204 6.93833 9.38544L6.86241 9.41072C6.87289 9.44212 6.89145 9.46856 6.91737 9.48932L6.96737 9.42684ZM6.93845 9.38576L6.83245 9.05776L6.75629 9.0824L6.86229 9.4104L6.93845 9.38576ZM6.83181 9.05604C6.82745 9.04432 6.81977 9.03291 6.80757 9.02479C6.79553 9.01675 6.78229 9.01408 6.77037 9.01408V9.09408C6.77045 9.09408 6.76721 9.09404 6.76317 9.09136C6.75897 9.08856 6.75729 9.08516 6.75693 9.08411L6.83181 9.05604ZM6.77037 9.01408H6.21637V9.09408H6.77037V9.01408ZM6.21637 9.01408C6.20413 9.01408 6.19101 9.01724 6.17933 9.02572C6.16789 9.03404 6.16097 9.04524 6.15693 9.05604L6.23181 9.08411C6.23177 9.08423 6.23053 9.08744 6.22641 9.09044C6.22209 9.09356 6.21797 9.09408 6.21637 9.09408V9.01408ZM6.15641 9.05747L6.04641 9.38948L6.12233 9.41468L6.23233 9.08268L6.15641 9.05747ZM6.04641 9.38944C6.04097 9.40576 6.03189 9.41816 6.01873 9.42784L6.06601 9.49232C6.09285 9.47268 6.11177 9.4464 6.12233 9.41472L6.04641 9.38944ZM6.01913 9.42752C6.00793 9.43552 5.99429 9.44008 5.97637 9.44008V9.52008C6.00913 9.52008 6.03945 9.51132 6.06561 9.49264L6.01913 9.42752ZM7.45249 9.39608L7.41473 9.40932L7.41485 9.4096L7.41497 9.40992L7.45249 9.39608ZM6.99849 8.10007L6.96053 8.11271L6.96065 8.11299L6.96073 8.11331L6.99849 8.10007ZM7.00449 8.04607L6.97161 8.02331L6.97141 8.02359L6.97121 8.02387L7.00449 8.04607ZM7.12449 8.04407L7.10049 8.07607L7.10117 8.07655L7.10185 8.07703L7.12449 8.04407ZM7.16849 8.10207L7.20645 8.08947V8.08943L7.16849 8.10207ZM7.57249 9.32008H7.61249V9.3136L7.61045 9.30748L7.57249 9.32008ZM7.57849 9.32008L7.54053 9.30752L7.53849 9.31364V9.32008H7.57849ZM7.98249 8.09807L7.94453 8.08543V8.08551L7.98249 8.09807ZM8.02449 8.04207L8.04669 8.07535L8.04741 8.07487L8.04813 8.07431L8.02449 8.04207ZM8.14049 8.04607L8.10761 8.06883L8.10805 8.06947L8.10849 8.07007L8.14049 8.04607ZM8.14849 8.09807L8.11081 8.08463L8.11077 8.08483L8.14849 8.09807ZM7.69249 9.39608L7.73001 9.40992L7.73013 9.40964L7.73025 9.40932L7.69249 9.39608ZM7.64449 9.45808L7.66717 9.49104L7.66757 9.49076L7.64449 9.45808ZM7.49849 9.45808L7.47449 9.49008L7.47561 9.49092L7.47677 9.49168L7.49849 9.45808ZM7.49025 9.38284L7.03625 8.08683L6.96073 8.11331L7.41473 9.40932L7.49025 9.38284ZM7.03645 8.08743C7.03325 8.07783 7.03469 8.07291 7.03777 8.06827L6.97121 8.02387C6.95297 8.05123 6.95041 8.08231 6.96053 8.11271L7.03645 8.08743ZM7.03737 8.06883C7.04181 8.06247 7.04609 8.06007 7.05449 8.06007V7.98007C7.02021 7.98007 6.99117 7.99503 6.97161 8.02331L7.03737 8.06883ZM7.05449 8.06007C7.07069 8.06007 7.08569 8.06499 7.10049 8.07607L7.14849 8.01207C7.12061 7.99115 7.08897 7.98007 7.05449 7.98007V8.06007ZM7.10185 8.07703C7.11617 8.08691 7.12537 8.09919 7.13053 8.11471L7.20645 8.08943C7.19561 8.05695 7.17549 8.03059 7.14717 8.01111L7.10185 8.07703ZM7.13053 8.11467L7.53453 9.33268L7.61045 9.30748L7.20645 8.08947L7.13053 8.11467ZM7.53249 9.32008C7.53249 9.32692 7.53421 9.3394 7.54469 9.34988C7.55521 9.36036 7.56765 9.36208 7.57449 9.36208V9.28208C7.58001 9.28208 7.59145 9.28348 7.60129 9.29328C7.61109 9.30312 7.61249 9.3146 7.61249 9.32008H7.53249ZM7.57449 9.36208C7.57789 9.36208 7.58637 9.36188 7.59537 9.35736C7.60045 9.3548 7.60669 9.35044 7.61153 9.34316C7.61653 9.3356 7.61849 9.3274 7.61849 9.32008H7.53849C7.53849 9.3134 7.54029 9.3058 7.54497 9.29876C7.54949 9.292 7.55521 9.288 7.55961 9.2858C7.56729 9.28196 7.57377 9.28208 7.57449 9.28208V9.36208ZM7.61649 9.33264L8.02049 8.11063L7.94453 8.08551L7.54053 9.30752L7.61649 9.33264ZM8.02045 8.11071C8.02577 8.09467 8.03449 8.08347 8.04669 8.07535L8.00229 8.00879C7.97449 8.02731 7.95521 8.05347 7.94453 8.08543L8.02045 8.11071ZM8.04813 8.07431C8.06113 8.06479 8.07549 8.06007 8.09249 8.06007V7.98007C8.05885 7.98007 8.02785 7.98999 8.00085 8.00983L8.04813 8.07431ZM8.09249 8.06007C8.09853 8.06007 8.10261 8.06159 8.10761 8.06883L8.17337 8.02331C8.15437 7.99587 8.12645 7.98007 8.09249 7.98007V8.06007ZM8.10849 8.07007C8.11253 8.07543 8.11293 8.07875 8.11081 8.08463L8.18617 8.11151C8.19741 8.08007 8.19245 8.04871 8.17249 8.02207L8.10849 8.07007ZM8.11077 8.08483L7.65477 9.38284L7.73025 9.40932L8.18625 8.11131L8.11077 8.08483ZM7.65497 9.38224C7.64853 9.39976 7.63765 9.41392 7.62141 9.4254L7.66757 9.49076C7.69665 9.47024 7.71781 9.44308 7.73001 9.40992L7.65497 9.38224ZM7.62185 9.42512C7.60737 9.43504 7.59133 9.44008 7.57249 9.44008V9.52008C7.60701 9.52008 7.63893 9.51044 7.66717 9.49104L7.62185 9.42512ZM7.57249 9.44008C7.55365 9.44008 7.53649 9.43504 7.52021 9.42448L7.47677 9.49168C7.50581 9.51048 7.53801 9.52008 7.57249 9.52008V9.44008ZM7.52249 9.42608C7.50741 9.41476 7.49673 9.40044 7.49001 9.38224L7.41497 9.40992C7.42693 9.4424 7.44693 9.4694 7.47449 9.49008L7.52249 9.42608ZM8.40785 9.44608L8.43613 9.4178L8.40785 9.44608ZM8.40785 8.05407L8.37957 8.02579L8.40785 8.05407ZM9.20785 8.04007L9.23613 8.01179L9.20785 8.04007ZM9.20785 8.13407L9.23613 8.16235L9.23681 8.16167L9.23745 8.16099L9.20785 8.13407ZM9.16985 8.65007L9.14009 8.67683L9.14081 8.67763L9.14157 8.67835L9.16985 8.65007ZM9.16985 8.74007L9.19813 8.76835L9.19885 8.76763L9.19957 8.76683L9.16985 8.74007ZM9.20785 9.36808L9.17825 9.395L9.17889 9.39568L9.17957 9.39636L9.20785 9.36808ZM9.20785 9.46008L9.23613 9.48836L9.20785 9.46008ZM8.48785 9.44008C8.46829 9.44008 8.45165 9.43332 8.43613 9.4178L8.37957 9.47436C8.40933 9.50416 8.44605 9.52008 8.48785 9.52008V9.44008ZM8.43613 9.4178C8.42057 9.40224 8.41385 9.3856 8.41385 9.36608H8.33385C8.33385 9.40788 8.34977 9.44456 8.37957 9.47436L8.43613 9.4178ZM8.41385 9.36608V8.13407H8.33385V9.36608H8.41385ZM8.41385 8.13407C8.41385 8.11455 8.42057 8.09791 8.43613 8.08235L8.37957 8.02579C8.34977 8.05559 8.33385 8.09227 8.33385 8.13407H8.41385ZM8.43613 8.08235C8.45165 8.06683 8.46829 8.06007 8.48785 8.06007V7.98007C8.44605 7.98007 8.40933 7.99599 8.37957 8.02579L8.43613 8.08235ZM8.48785 8.06007H9.15985V7.98007H8.48785V8.06007ZM9.15985 8.06007C9.16777 8.06007 9.17365 8.06243 9.17957 8.06835L9.23613 8.01179C9.21537 7.99103 9.18925 7.98007 9.15985 7.98007V8.06007ZM9.17957 8.06835C9.18613 8.07491 9.18785 8.08035 9.18785 8.08607H9.26785C9.26785 8.05715 9.25625 8.03191 9.23613 8.01179L9.17957 8.06835ZM9.18785 8.08607C9.18785 8.09203 9.18589 8.09871 9.17825 8.10715L9.23745 8.16099C9.25645 8.14007 9.26785 8.11479 9.26785 8.08607H9.18785ZM9.17957 8.10579C9.17365 8.11171 9.16777 8.11407 9.15985 8.11407V8.19407C9.18925 8.19407 9.21537 8.18311 9.23613 8.16235L9.17957 8.10579ZM9.15985 8.11407H8.55185V8.19407H9.15985V8.11407ZM8.55185 8.11407C8.54077 8.11407 8.52497 8.11643 8.51177 8.12819C8.49765 8.14071 8.49385 8.15727 8.49385 8.17007H8.57385C8.57385 8.17219 8.57301 8.18075 8.56493 8.18795C8.55769 8.19439 8.55093 8.19407 8.55185 8.19407V8.11407ZM8.49385 8.17007V8.61407H8.57385V8.17007H8.49385ZM8.49385 8.61407C8.49385 8.62687 8.49765 8.64343 8.51177 8.65595C8.52497 8.66771 8.54077 8.67007 8.55185 8.67007V8.59007C8.55093 8.59007 8.55769 8.58975 8.56493 8.59619C8.57301 8.60339 8.57385 8.61195 8.57385 8.61407H8.49385ZM8.55185 8.67007H9.12385V8.59007H8.55185V8.67007ZM9.12385 8.67007C9.13169 8.67007 9.13605 8.67231 9.14009 8.67683L9.19957 8.62331C9.17965 8.60115 9.15333 8.59007 9.12385 8.59007V8.67007ZM9.14157 8.67835C9.14589 8.68267 9.14785 8.68711 9.14785 8.69407H9.22785C9.22785 8.66639 9.21781 8.64147 9.19813 8.62179L9.14157 8.67835ZM9.14785 8.69407C9.14785 8.70115 9.14573 8.70703 9.14009 8.71331L9.19957 8.76683C9.21793 8.74643 9.22785 8.72167 9.22785 8.69407H9.14785ZM9.14157 8.71179C9.13785 8.71551 9.13305 8.71807 9.12385 8.71807V8.79807C9.15193 8.79807 9.17785 8.78863 9.19813 8.76835L9.14157 8.71179ZM9.12385 8.71807H8.55185V8.79807H9.12385V8.71807ZM8.55185 8.71807C8.53969 8.71807 8.52321 8.72115 8.51005 8.73427C8.49689 8.74743 8.49385 8.76391 8.49385 8.77607H8.57385C8.57385 8.77623 8.57377 8.78371 8.56661 8.79087C8.55949 8.79799 8.55201 8.79807 8.55185 8.79807V8.71807ZM8.49385 8.77607V9.33008H8.57385V8.77607H8.49385ZM8.49385 9.33008C8.49385 9.34288 8.49765 9.35944 8.51177 9.37196C8.52497 9.38372 8.54077 9.38608 8.55185 9.38608V9.30608C8.55093 9.30608 8.55769 9.30576 8.56493 9.3122C8.57301 9.3194 8.57385 9.32796 8.57385 9.33008H8.49385ZM8.55185 9.38608H9.15985V9.30608H8.55185V9.38608ZM9.15985 9.38608C9.16649 9.38608 9.17197 9.38808 9.17825 9.395L9.23745 9.34116C9.21705 9.31876 9.19053 9.30608 9.15985 9.30608V9.38608ZM9.17957 9.39636C9.18613 9.40292 9.18785 9.40836 9.18785 9.41408H9.26785C9.26785 9.38516 9.25625 9.35992 9.23613 9.3398L9.17957 9.39636ZM9.18785 9.41408C9.18785 9.4198 9.18613 9.42524 9.17957 9.4318L9.23613 9.48836C9.25625 9.46824 9.26785 9.443 9.26785 9.41408H9.18785ZM9.17957 9.4318C9.17365 9.43772 9.16777 9.44008 9.15985 9.44008V9.52008C9.18925 9.52008 9.21537 9.50912 9.23613 9.48836L9.17957 9.4318ZM9.15985 9.44008H8.48785V9.52008H9.15985V9.44008Z" fill="#0057FF"/>
<defs>
<linearGradient id="paint0_linear" x1="13.06" y1="0.979999" x2="6.62" y2="15.72" gradientUnits="userSpaceOnUse">
<stop stop-color="#8223AF"/>
<stop offset="1" stop-color="#357EC1"/>
</linearGradient>
</defs>
</svg>
